<svg width="517" height="508" viewBox="0 0 517 508" fill="none" xmlns="http://www.w3.org/2000/svg">
<g clip-path="url(#clip0_292_785)">
<g clip-path="url(#clip1_292_785)">
<path d="M152.556 45.9283C152.17 44.1434 150.484 43.4383 148.897 44.3528L139.287 49.9056C139.331 49.4979 139.364 49.0792 139.364 48.6826V45.2011C139.364 41.995 136.807 39.9678 133.733 40.8933C131.363 41.5984 129.137 43.5485 127.451 45.9723C126.536 37.8415 118.194 36.6406 109.984 46.8097C106.821 50.7208 105.201 55.6677 105.201 60.6916V64.3935C105.201 66.2334 105.543 67.7868 106.149 69.0318L98.5997 73.3947C96.9686 74.3312 95.6682 75.7855 94.996 77.5373C93.1556 82.3078 95.4368 84.7867 98.4784 83.0239L148.522 54.1362C151.123 52.6379 153.162 48.6936 152.556 45.9283Z" fill="url(#paint0_linear_292_785)"/>
<path d="M24.9282 68.7674L30.2621 64.6579V52.9794C30.2621 43.7798 37.6016 33.0929 45.5804 28.4876C53.5592 23.8824 60.0171 27.6173 60.0171 36.8168V38.6567C61.8796 35.7591 64.293 33.2582 66.9269 31.7378C72.8449 28.3224 77.6498 31.0878 77.6498 37.9296V38.3262L85.0996 34.0294C88.6371 31.9912 91.8661 33.6438 91.9983 37.7203C92.1526 42.1933 88.9898 47.7571 85.0775 50.0157L24.9061 84.7426C21.3686 86.7809 18.1396 85.1282 18.0074 81.0518C17.8531 76.5787 21.0159 71.0149 24.9282 68.7563V68.7674Z" fill="url(#paint1_linear_292_785)"/>
<path d="M104.098 338.155V371.736C104.098 389.969 116.143 408.203 140.245 422.107C188.448 449.926 266.594 449.926 314.797 422.107C338.899 408.192 350.944 389.969 350.944 371.736V338.155C350.944 319.921 338.888 301.687 314.797 287.783C266.594 259.964 188.448 259.964 140.245 287.783C116.143 301.698 104.098 319.921 104.098 338.155ZM338.425 338.188C338.425 352.753 327.724 366.943 308.295 378.159C286.805 390.564 257.976 397.395 227.13 397.395C196.284 397.395 167.454 390.564 145.965 378.159C126.536 366.943 115.835 352.753 115.835 338.188C115.835 323.623 126.536 309.432 145.965 298.216C167.454 285.811 196.284 278.98 227.13 278.98C257.976 278.98 286.805 285.811 308.295 298.216C327.724 309.432 338.425 323.623 338.425 338.188Z" fill="url(#paint2_linear_292_785)"/>
<path opacity="0.2" d="M104.098 338.155V371.736C104.098 389.969 116.143 408.203 140.245 422.107C188.448 449.926 266.594 449.926 314.797 422.107C338.899 408.192 350.944 389.969 350.944 371.736V338.155C350.944 319.921 338.888 301.687 314.797 287.783C266.594 259.964 188.448 259.964 140.245 287.783C116.143 301.698 104.098 319.921 104.098 338.155ZM338.425 338.188C338.425 352.753 327.724 366.943 308.295 378.159C286.805 390.564 257.976 397.395 227.13 397.395C196.284 397.395 167.454 390.564 145.965 378.159C126.536 366.943 115.835 352.753 115.835 338.188C115.835 323.623 126.536 309.432 145.965 298.216C167.454 285.811 196.284 278.98 227.13 278.98C257.976 278.98 286.805 285.811 308.295 298.216C327.724 309.432 338.425 323.623 338.425 338.188Z" fill="white"/>
<path opacity="0.6" d="M350.228 374.842C348.31 386.367 343.23 395.048 322.776 411.024C293.837 433.609 220.595 442.831 178.067 428.795C137.975 415.563 125.037 371.956 125.037 371.956V361.522C125.037 361.522 115.835 346.219 115.835 338.188C115.835 330.156 119.262 321.827 126.139 314.291V299.957H123.604C123.604 299.957 103.922 324.735 104.098 338.176V371.703C103.911 389.903 115.945 408.104 140.003 421.986C188.118 449.761 266.142 449.761 314.257 421.986C336.937 408.897 348.928 391.975 350.228 374.831V374.842Z" fill="url(#paint3_linear_292_785)"/>
<path d="M314.269 287.893C266.154 260.118 188.129 260.118 140.014 287.893C91.899 315.668 91.899 360.696 140.014 388.471C188.129 416.246 266.154 416.246 314.269 388.471C362.384 360.696 362.384 315.668 314.269 287.893ZM308.307 378.159C286.817 390.564 257.987 397.395 227.141 397.395C196.295 397.395 167.466 390.564 145.976 378.159C126.547 366.943 115.846 352.753 115.846 338.188C115.846 323.622 126.547 309.432 145.976 298.216C167.466 285.811 196.295 278.98 227.141 278.98C257.987 278.98 286.817 285.811 308.307 298.216C327.736 309.432 338.436 323.622 338.436 338.188C338.436 352.753 327.736 366.943 308.307 378.159Z" fill="url(#paint4_linear_292_785)"/>
<path opacity="0.5" d="M314.269 287.893C266.154 260.118 188.129 260.118 140.014 287.893C91.899 315.668 91.899 360.696 140.014 388.471C188.129 416.246 266.154 416.246 314.269 388.471C362.384 360.696 362.384 315.668 314.269 287.893ZM308.307 378.159C286.817 390.564 257.987 397.395 227.141 397.395C196.295 397.395 167.466 390.564 145.976 378.159C126.547 366.943 115.846 352.753 115.846 338.188C115.846 323.622 126.547 309.432 145.976 298.216C167.466 285.811 196.295 278.98 227.141 278.98C257.987 278.98 286.817 285.811 308.307 298.216C327.736 309.432 338.436 323.622 338.436 338.188C338.436 352.753 327.736 366.943 308.307 378.159Z" fill="white"/>
<path d="M338.447 338.188C338.447 343.906 336.805 349.524 333.631 354.956C328.749 346.495 320.142 338.562 308.295 331.753C286.828 319.337 257.987 312.506 227.119 312.506C196.251 312.506 167.444 319.348 145.976 331.753C134.129 338.562 125.533 346.506 120.618 354.956C117.477 349.524 115.824 343.906 115.824 338.188C115.824 323.633 126.525 309.432 145.976 298.205C167.444 285.811 196.284 278.98 227.119 278.98C257.954 278.98 286.817 285.822 308.295 298.205C327.746 309.432 338.447 323.622 338.447 338.188Z" fill="url(#paint5_linear_292_785)"/>
<path opacity="0.3" d="M338.447 338.188C338.447 343.906 336.805 349.524 333.631 354.956C328.749 346.495 320.142 338.562 308.295 331.753C286.828 319.337 257.987 312.506 227.119 312.506C196.251 312.506 167.444 319.348 145.976 331.753C134.129 338.562 125.533 346.506 120.618 354.956C117.477 349.524 115.824 343.906 115.824 338.188C115.824 323.633 126.525 309.432 145.976 298.205C167.444 285.811 196.284 278.98 227.119 278.98C257.954 278.98 286.817 285.822 308.295 298.205C327.746 309.432 338.447 323.622 338.447 338.188Z" fill="white"/>
<path opacity="0.6" d="M145.976 298.205C126.525 309.432 115.824 323.623 115.824 338.188C115.824 343.906 117.466 349.524 120.618 354.956C125.533 346.495 134.129 338.562 145.976 331.753C150.803 328.966 156.027 326.465 161.537 324.251C156.842 326.068 142.427 330.707 147.684 316.968C153.933 300.64 184.415 282.979 206.831 280.038V280.005C183.787 282.329 162.661 288.576 145.976 298.205Z" fill="url(#paint6_linear_292_785)"/>
<path opacity="0.4" d="M308.306 313.398C286.817 300.993 257.987 294.162 227.141 294.162C196.295 294.162 167.466 300.993 145.976 313.398C129.941 322.653 119.88 333.935 116.838 345.779C119.88 357.622 129.941 368.904 145.976 378.159C167.466 390.564 196.295 397.395 227.141 397.395C257.987 397.395 286.817 390.564 308.306 378.159C324.341 368.904 334.403 357.622 337.444 345.779C334.403 333.935 324.341 322.653 308.306 313.398Z" fill="url(#paint7_linear_292_785)"/>
<path d="M310.599 409.823C310.577 404.314 314.412 397.605 319.173 394.839C321.542 393.462 323.68 393.319 325.245 394.2H325.267L352.719 409.9C352.719 409.9 352.741 409.9 352.752 409.911C354.306 410.815 355.275 412.732 355.286 415.475C355.308 420.984 351.473 427.693 346.713 430.459C344.332 431.847 342.172 431.979 340.607 431.087L313.155 415.398C311.58 414.505 310.588 412.577 310.577 409.812L310.599 409.823Z" fill="url(#paint8_linear_292_785)"/>
<path d="M313.167 415.409C311.591 414.516 310.599 412.588 310.588 409.823C310.588 407.752 311.117 405.504 312.054 403.367L351.518 425.974C350.151 427.847 348.498 429.434 346.713 430.47C344.332 431.858 342.172 431.99 340.607 431.098L313.156 415.409H313.167Z" fill="url(#paint9_linear_292_785)"/>
<path d="M446.215 454.554C446.204 454.554 446.193 454.543 446.182 454.532L358.835 410.032L358.713 409.966C356.686 408.886 353.942 409.074 350.9 410.847C344.706 414.45 339.714 423.187 339.747 430.348C339.758 433.94 341.037 436.452 343.086 437.62L425.221 490.481C428.428 492.498 432.219 493.666 436.297 493.666C447.802 493.666 457.125 484.345 457.125 472.843C457.125 464.943 452.728 458.079 446.248 454.554H446.215Z" fill="url(#paint10_linear_292_785)"/>
<path d="M343.065 437.62L425.2 490.481C428.407 492.498 432.198 493.665 436.275 493.665C447.329 493.665 456.343 485.061 457.027 474.187C455.451 481.017 444.144 486.846 430.126 479.001C416.031 471.124 364.191 438.369 340.585 424.785C340.023 426.669 339.714 428.552 339.725 430.348C339.736 433.94 341.015 436.452 343.065 437.62Z" fill="url(#paint11_linear_292_785)"/>
<path d="M343.064 437.62C341.015 436.452 339.747 433.94 339.725 430.348C339.692 423.187 344.695 414.45 350.878 410.847C353.909 409.073 356.664 408.886 358.691 409.977L366.428 413.899C364.345 412.775 361.524 412.974 358.416 414.792C352.068 418.493 346.944 427.451 346.977 434.788C346.988 438.468 348.244 441.101 350.338 442.302" fill="url(#paint12_linear_292_785)"/>
<path opacity="0.2" d="M350.338 442.302C348.244 441.112 346.988 438.479 346.977 434.788C346.977 432.937 347.286 430.987 347.87 429.048C345.236 427.484 342.778 426.052 340.585 424.785C340.31 425.721 340.089 426.669 339.946 427.605C339.869 428.068 339.814 428.53 339.781 428.993C339.748 429.456 339.726 429.908 339.726 430.348C339.737 433.94 341.015 436.452 343.065 437.62L350.349 442.302H350.338Z" fill="url(#paint13_linear_292_785)"/>
<path d="M134.085 488.653L67.9628 455.589L41.624 467.235L134.085 488.653Z" fill="url(#paint14_linear_292_785)"/>
<g opacity="0.15">
<path d="M134.085 488.653L67.9628 455.589L41.624 467.235L134.085 488.653Z" fill="url(#paint15_linear_292_785)"/>
</g>
<path d="M134.085 488.653L75.8423 449.728L86.2676 434.733L134.085 488.653Z" fill="url(#paint16_linear_292_785)"/>
<g opacity="0.15">
<path d="M134.085 488.653L75.8423 449.728L86.2676 434.733L134.085 488.653Z" fill="url(#paint17_linear_292_785)"/>
</g>
<path d="M75.8423 449.728L76.9333 460.073L134.085 488.653L75.8423 449.728Z" fill="url(#paint18_linear_292_785)"/>
<g opacity="0.2">
<path d="M75.8423 449.728L76.9333 460.073L134.085 488.653L75.8423 449.728Z" fill="url(#paint19_linear_292_785)"/>
</g>
<path d="M66.4088 447.734C66.5631 447.734 66.7174 447.679 66.8386 447.558C67.1141 447.293 67.1362 446.841 66.9047 446.533C66.4749 445.982 66.0562 445.442 65.6264 444.88C65.3949 444.572 64.9762 444.539 64.7006 444.792C64.4251 445.046 64.3921 445.508 64.6235 445.817C65.0423 446.379 65.4721 446.93 65.9019 447.48C66.0341 447.646 66.2104 447.734 66.3978 447.734H66.4088Z" fill="url(#paint20_linear_292_785)"/>
<path d="M60.601 440.231C59.8185 439.085 59.0581 437.928 58.3198 436.76C58.1104 436.43 58.1875 435.978 58.474 435.747C58.7716 435.516 59.1794 435.593 59.3887 435.923C60.1161 437.08 60.8655 438.226 61.6479 439.361C61.8683 439.68 61.8132 440.132 61.5157 440.374C61.3945 440.473 61.2622 440.517 61.1189 440.517C60.9206 440.517 60.7222 440.418 60.601 440.231ZM54.7712 430.767C54.0879 429.544 53.4377 428.299 52.8096 427.054C52.6332 426.702 52.7434 426.261 53.063 426.063C53.3716 425.864 53.7794 425.996 53.9557 426.338C54.5728 427.572 55.223 428.784 55.8953 429.996C56.0826 430.337 55.9834 430.789 55.6749 430.998C55.5647 431.075 55.4434 431.109 55.3332 431.109C55.1128 431.109 54.9034 430.987 54.7712 430.767ZM49.8561 420.675C49.3051 419.375 48.7761 418.042 48.2912 416.731C48.1479 416.356 48.3132 415.938 48.6439 415.783C48.9745 415.629 49.3602 415.805 49.5034 416.18C49.9883 417.469 50.5063 418.78 51.0463 420.058C51.2006 420.422 51.0573 420.851 50.7267 421.028C50.6385 421.072 50.5394 421.094 50.4512 421.094C50.2087 421.094 49.9663 420.939 49.8561 420.675ZM46.043 410.01C45.6353 408.633 45.2716 407.245 44.941 405.879C44.8418 405.493 45.0512 405.096 45.4039 404.986C45.7565 404.876 46.1092 405.107 46.2083 405.493C46.539 406.837 46.9026 408.203 47.2994 409.558C47.4096 409.944 47.2222 410.352 46.8806 410.473C46.8145 410.495 46.7483 410.506 46.6822 410.506C46.4067 410.506 46.1532 410.308 46.0541 409.999L46.043 410.01ZM43.5083 398.883C43.2769 397.483 43.0785 396.051 42.9132 394.63C42.8692 394.233 43.1226 393.87 43.4753 393.815C43.8279 393.77 44.1585 394.046 44.2026 394.443C44.3679 395.842 44.5553 397.252 44.7867 398.629C44.8528 399.026 44.6104 399.4 44.2577 399.478C44.2137 399.478 44.1806 399.489 44.1365 399.489C43.8279 399.489 43.5524 399.246 43.4973 398.894L43.5083 398.883ZM42.3732 387.468C42.3292 386.345 42.3181 385.221 42.3732 384.086V383.161C42.3181 382.764 42.6047 382.445 42.9683 382.61C43.332 382.456 43.6185 382.786 43.4643 383.183V384.086C43.6075 385.199 43.6296 386.312 43.6626 387.413C43.6737 387.81 43.3981 388.152 43.0345 388.119H43.0124C42.6598 388.174 42.3732 387.865 42.3622 387.468H42.3732ZM43.2549 376.782C42.8912 376.749 42.6267 376.385 42.6598 375.988C42.781 374.567 42.9353 373.135 43.1226 371.714C43.1777 371.317 43.5083 371.042 43.861 371.097C44.2137 371.152 44.4671 371.526 44.412 371.923C44.2357 373.322 44.0814 374.732 43.9602 376.132C43.9271 376.506 43.6406 376.793 43.31 376.793C43.2879 376.793 43.2659 376.793 43.2439 376.793L43.2549 376.782ZM44.7977 365.522C44.4451 365.434 44.2247 365.048 44.3018 364.651C44.5883 363.252 44.919 361.853 45.2826 360.476C45.3818 360.09 45.7455 359.87 46.0981 359.98C46.4508 360.09 46.6492 360.498 46.539 360.883C46.1863 362.228 45.8557 363.605 45.5802 364.971C45.5141 365.301 45.2385 365.533 44.941 365.533C44.8969 365.533 44.8418 365.533 44.7977 365.511V365.522ZM47.7732 354.637C47.4316 354.482 47.2773 354.064 47.4096 353.689C47.8945 352.367 48.4124 351.034 48.9634 349.734C49.1177 349.37 49.5145 349.216 49.8341 349.381C50.1647 349.558 50.2969 349.987 50.1426 350.351C49.6026 351.629 49.0847 352.929 48.6218 354.229C48.5226 354.515 48.2692 354.681 48.0157 354.681C47.9385 354.681 47.8504 354.659 47.7732 354.626V354.637ZM52.2475 344.39C51.939 344.181 51.8398 343.74 52.0271 343.399C52.6883 342.165 53.3936 340.942 54.121 339.763C54.3304 339.433 54.7381 339.344 55.0357 339.576C55.3332 339.807 55.4104 340.259 55.212 340.589C54.4957 341.746 53.8124 342.947 53.1512 344.148C53.03 344.379 52.8096 344.501 52.5892 344.501C52.479 344.501 52.3577 344.467 52.2475 344.401V344.39ZM58.1104 335.048C57.8349 334.794 57.7908 334.331 58.0222 334.023C58.8487 332.921 59.7194 331.83 60.601 330.784C60.8545 330.486 61.2622 330.475 61.5267 330.751C61.7912 331.026 61.8022 331.489 61.5598 331.775C60.7002 332.8 59.8516 333.858 59.0361 334.948C58.9038 335.125 58.7165 335.213 58.5292 335.213C58.3859 335.213 58.2316 335.158 58.1104 335.048ZM65.1855 326.796C64.943 326.498 64.9651 326.035 65.2406 325.771C66.2104 324.812 67.2132 323.887 68.2161 322.995C68.5026 322.741 68.9104 322.796 69.1418 323.116C69.3622 323.435 69.3181 323.887 69.0316 324.14C68.0398 325.011 67.0589 325.925 66.1112 326.862C65.99 326.983 65.8357 327.049 65.6814 327.049C65.5051 327.049 65.3177 326.972 65.1965 326.807L65.1855 326.796ZM73.3075 319.821C73.1091 319.48 73.1973 319.039 73.5059 318.819C74.6189 318.026 75.743 317.287 76.8561 316.615C77.1646 316.428 77.5724 316.549 77.7487 316.902C77.9251 317.254 77.8038 317.695 77.4842 317.893C76.3932 318.554 75.2912 319.282 74.2112 320.042C74.101 320.119 73.9797 320.152 73.8585 320.152C73.6491 320.152 73.4287 320.031 73.3075 319.821Z" fill="url(#paint21_linear_292_785)"/>
<path d="M83.0496 315.062C83.1157 315.062 83.1819 315.051 83.248 315.029C83.9423 314.775 84.5484 314.61 85.0443 314.533C85.397 314.478 85.6504 314.103 85.5953 313.707C85.5402 313.31 85.1986 313.024 84.857 313.09C84.2949 313.178 83.6116 313.365 82.8512 313.641C82.5096 313.762 82.3223 314.17 82.4325 314.555C82.5206 314.864 82.7741 315.062 83.0606 315.062H83.0496Z" fill="url(#paint22_linear_292_785)"/>
<path d="M392.503 61.6061L324.727 40.8383L376.942 76.689L392.503 61.6061Z" fill="url(#paint23_linear_292_785)"/>
<path opacity="0.15" d="M392.503 61.6061L324.727 40.8383L376.942 76.689L392.503 61.6061Z" fill="white"/>
<path d="M324.727 40.8382L397.671 52.5608L413.232 37.4779L324.727 40.8382Z" fill="url(#paint24_linear_292_785)"/>
<path opacity="0.15" d="M324.727 40.8382L397.671 52.5608L413.232 37.4779L324.727 40.8382Z" fill="white"/>
<path d="M397.241 52.5608L397.319 70.5963L392.073 61.6061L324.297 40.8383L397.241 52.5608Z" fill="url(#paint25_linear_292_785)"/>
<path opacity="0.2" d="M397.241 52.5608L397.319 70.5963L392.073 61.6061L324.297 40.8383L397.241 52.5608Z" fill="black"/>
<path d="M397.748 70.5963L387.312 66.63L392.503 61.6061L397.748 70.5963Z" fill="url(#paint26_linear_292_785)"/>
<path opacity="0.2" d="M392.503 61.6061L387.312 66.63L388.976 67.269L392.503 61.6061Z" fill="black"/>
<path d="M411.414 58.433C411.293 58.5211 411.204 58.6644 411.182 58.8296C411.127 59.2042 411.381 59.5898 411.755 59.689C412.428 59.8653 413.1 60.0415 413.772 60.2288C414.147 60.328 414.499 60.1076 414.555 59.7441C414.621 59.3695 414.367 58.9839 413.993 58.8847C413.32 58.6974 412.637 58.5211 411.965 58.3338C411.766 58.2788 411.568 58.3338 411.425 58.433H411.414Z" fill="url(#paint27_linear_292_785)"/>
<path d="M420.594 60.8788C421.916 61.3195 423.217 61.7823 424.517 62.256C424.881 62.3882 425.101 62.7959 425.002 63.1594C424.914 63.523 424.528 63.6993 424.164 63.5671C422.886 63.0933 421.597 62.6306 420.285 62.2009C419.922 62.0797 419.69 61.6831 419.767 61.3195C419.8 61.1653 419.877 61.0441 419.988 60.967C420.142 60.8458 420.362 60.8017 420.583 60.8788H420.594ZM430.964 64.8781C432.253 65.44 433.521 66.035 434.777 66.6409C435.13 66.8172 435.306 67.2359 435.174 67.5774C435.042 67.93 434.645 68.0622 434.292 67.8969C433.058 67.291 431.802 66.707 430.534 66.1562C430.182 66.0019 429.983 65.5833 430.104 65.2307C430.148 65.1095 430.215 65.0104 430.314 64.9332C430.49 64.801 430.733 64.768 430.964 64.8671V64.8781ZM440.993 69.9351C442.227 70.6403 443.45 71.3784 444.629 72.1166C444.96 72.3259 445.092 72.7666 444.927 73.0861C444.751 73.4167 444.343 73.5048 444.012 73.2955C442.844 72.5573 441.643 71.8412 440.431 71.1471C440.089 70.9488 439.935 70.5191 440.1 70.1885C440.144 70.1004 440.199 70.0233 440.276 69.9682C440.475 69.814 440.75 69.8029 441.004 69.9462L440.993 69.9351ZM450.492 76.1159C451.649 76.9643 452.784 77.8457 453.875 78.7271C454.184 78.9805 454.261 79.4212 454.052 79.7186C453.842 80.0161 453.413 80.0491 453.104 79.7957C452.035 78.9254 450.911 78.066 449.776 77.2287C449.456 76.9973 449.357 76.5566 449.555 76.2481C449.588 76.193 449.644 76.138 449.699 76.0939C449.919 75.9286 450.239 75.9286 450.503 76.1159H450.492ZM459.253 83.4315C460.289 84.412 461.314 85.4256 462.306 86.4613C462.582 86.7477 462.604 87.1884 462.35 87.4529C462.108 87.7063 461.667 87.6842 461.391 87.3978C460.422 86.3842 459.408 85.3816 458.394 84.4231C458.107 84.1476 458.063 83.7069 458.306 83.4315C458.328 83.3984 458.361 83.3764 458.394 83.3544C458.636 83.1671 459.011 83.2001 459.264 83.4425L459.253 83.4315ZM467.067 91.8268C467.783 92.6972 468.477 93.5785 469.161 94.482L469.723 95.2201C469.965 95.5397 469.921 95.9693 469.635 96.1897C469.348 96.399 468.918 96.3219 468.676 95.9914L468.125 95.2642C467.453 94.3828 466.758 93.5124 466.064 92.6531C465.811 92.3446 465.833 91.9039 466.108 91.6725C466.108 91.6725 466.119 91.6725 466.13 91.6615C466.406 91.4522 466.824 91.5183 467.078 91.8158L467.067 91.8268ZM472.842 100.861C473.15 100.674 473.58 100.795 473.789 101.137C474.55 102.337 475.299 103.582 476.015 104.816C476.214 105.158 476.115 105.588 475.795 105.753C475.475 105.929 475.057 105.786 474.858 105.433C474.153 104.21 473.415 102.987 472.665 101.809C472.467 101.489 472.522 101.092 472.786 100.894C472.808 100.883 472.819 100.872 472.842 100.861ZM478.44 110.744C478.771 110.6 479.189 110.777 479.355 111.14C479.972 112.429 480.556 113.74 481.107 115.052C481.261 115.415 481.107 115.812 480.765 115.933C480.424 116.054 480.016 115.856 479.862 115.481C479.333 114.192 478.748 112.903 478.142 111.647C477.999 111.339 478.065 110.997 478.308 110.81C478.341 110.777 478.385 110.755 478.44 110.733V110.744ZM482.672 121.21C483.035 121.122 483.41 121.365 483.531 121.739C483.95 123.083 484.347 124.46 484.688 125.827C484.788 126.212 484.556 126.565 484.204 126.631C483.84 126.697 483.465 126.433 483.366 126.047C483.024 124.703 482.639 123.359 482.231 122.037C482.143 121.75 482.231 121.464 482.44 121.309C482.506 121.265 482.584 121.221 482.661 121.199L482.672 121.21ZM485.328 132.073C485.702 132.051 486.044 132.338 486.11 132.734C486.33 134.112 486.507 135.511 486.65 136.899C486.694 137.285 486.419 137.604 486.044 137.604C485.669 137.604 485.339 137.296 485.295 136.91C485.162 135.555 484.986 134.189 484.777 132.834C484.733 132.58 484.832 132.349 485.008 132.217C485.096 132.151 485.206 132.107 485.339 132.095L485.328 132.073Z" fill="url(#paint28_linear_292_785)"/>
<path d="M473.186 327.135L464.38 330.903L462.496 340.3C462.264 341.457 460.81 341.843 460.038 340.95L453.723 333.745L444.202 334.858C443.034 334.99 442.218 333.734 442.824 332.72L447.728 324.49L443.728 315.787C443.243 314.718 444.18 313.55 445.326 313.815L454.671 315.941L461.724 309.452C462.584 308.658 463.994 309.198 464.094 310.366L464.964 319.907L473.318 324.601C474.343 325.173 474.266 326.672 473.186 327.135Z" fill="url(#paint29_linear_292_785)"/>
<path d="M436.182 299.749L431.938 304.126L433.142 310.106C433.291 310.842 432.531 311.426 431.859 311.092L426.381 308.414L421.065 311.408C420.411 311.772 419.624 311.235 419.73 310.491L420.586 304.454L416.099 300.328C415.551 299.82 415.814 298.904 416.552 298.777L422.561 297.729L425.106 292.185C425.416 291.508 426.377 291.479 426.722 292.14L429.579 297.527L435.636 298.229C436.379 298.313 436.702 299.212 436.182 299.749Z" fill="url(#paint30_linear_292_785)"/>
<path d="M415.256 122.08C406.958 117.276 395.54 117.926 382.944 125.198C357.575 139.84 337 175.735 337 205.361C337 220.267 342.224 230.723 350.632 235.582C352.572 236.705 360.209 241.057 360.198 241.101C359.36 246.808 356.98 252.824 349.497 257.253C349.012 257.539 349.321 258.002 349.74 258.255C349.916 258.355 360.958 264.734 361.388 264.976C361.564 265.075 361.752 265.141 361.917 265.141C373.378 265.163 386.669 257.44 390.361 241.399C391.749 240.749 393.149 240.022 394.571 239.206C419.94 224.564 440.515 188.669 440.515 159.043C440.515 144.137 435.302 133.659 426.893 128.79C424.932 127.655 417.184 123.204 415.256 122.08Z" fill="url(#paint31_linear_292_785)"/>
<path d="M394.582 131.919C369.213 146.561 348.638 182.456 348.638 212.081C348.638 232.177 358.115 244.219 372.122 245.321C371.604 251.711 369.731 258.894 361.135 263.973C360.452 264.37 361.344 265.141 361.917 265.141C373.379 265.163 386.669 257.44 390.361 241.399C391.75 240.749 393.149 240.022 394.571 239.206C419.94 224.564 440.515 188.669 440.515 159.044C440.515 129.418 419.951 117.276 394.571 131.919H394.582Z" fill="url(#paint32_linear_292_785)"/>
<path d="M361.134 263.962C360.715 264.216 360.903 264.601 361.244 264.877C359.867 264.095 349.904 258.355 349.75 258.244C349.32 257.991 349.023 257.528 349.508 257.242C357.002 252.824 359.371 246.797 360.208 241.09L361.487 241.839L362.644 242.522C365.476 244.098 368.661 245.023 372.122 245.299C371.604 251.678 369.73 258.872 361.134 263.951V263.962Z" fill="url(#paint33_linear_292_785)"/>
<path d="M392.152 190.327C393.199 187.694 394.731 184.587 396.737 180.985C398.214 178.351 399.293 176.225 399.988 174.606C400.682 172.986 401.024 171.399 401.024 169.857C401.024 167.654 400.362 166.298 399.051 165.781C397.74 165.263 395.976 165.637 393.794 166.893C391.7 168.105 389.827 169.758 388.207 171.862C386.576 173.967 385.209 176.379 384.085 179.101L375.985 177.437C377.859 172.545 380.394 168.138 383.589 164.216C386.785 160.294 390.565 157.066 394.94 154.543C400.076 151.579 404.198 150.665 407.294 151.788C410.402 152.912 411.945 156.063 411.945 161.241C411.945 163.687 411.647 166.001 411.041 168.193C410.435 170.386 409.697 172.38 408.826 174.154C407.956 175.939 406.831 178.065 405.443 180.522C403.79 183.442 402.589 185.788 401.828 187.562C401.068 189.336 400.693 191.176 400.693 193.082L390.576 198.921C390.576 195.825 391.105 192.961 392.152 190.338V190.327ZM391.083 218.664C389.86 217.794 389.243 216.229 389.243 213.971C389.243 211.712 389.849 209.476 391.05 207.261C392.251 205.047 393.794 203.405 395.668 202.314C397.541 201.235 399.084 201.102 400.285 201.929C401.487 202.744 402.093 204.298 402.093 206.556C402.093 208.815 401.476 211.095 400.252 213.376C399.029 215.667 397.497 217.331 395.668 218.389C393.838 219.446 392.307 219.546 391.083 218.675V218.664Z" fill="white"/>
<path d="M204.142 197.286L153.448 226.636L173.582 260.856C174.023 261.837 174.707 262.553 175.511 263.016C177.914 264.382 192.141 272.612 192.923 273.064C195.326 274.452 198.808 273.471 199.723 270.353L221.587 207.356L204.142 197.286Z" fill="url(#paint34_linear_292_785)"/>
<path opacity="0.2" d="M204.142 197.286L153.448 226.636L173.582 260.856C174.023 261.837 174.707 262.553 175.511 263.016C177.914 264.382 192.141 272.612 192.923 273.064C195.326 274.452 198.808 273.471 199.723 270.353L221.587 207.356L204.142 197.286Z" fill="url(#paint35_linear_292_785)"/>
<path d="M170.894 236.695L191.028 270.915C192.78 274.859 198.5 274.485 199.723 270.342L221.587 207.345L170.894 236.695Z" fill="url(#paint36_linear_292_785)"/>
<path d="M261.371 21.5687L69.9245 132.063C67.5 133.462 65.5273 136.866 65.5273 139.676V272.513C65.5273 275.311 67.511 278.704 69.9465 280.082L85.6837 288.907C88.1192 290.284 92.0755 290.262 94.5 288.863L285.946 178.369C288.371 176.97 290.343 173.565 290.343 170.756V37.9076C290.343 35.1091 288.36 31.7158 285.924 30.3386L270.176 21.5136C267.741 20.1365 263.784 20.1585 261.36 21.5577L261.371 21.5687Z" fill="url(#paint37_linear_292_785)"/>
<path opacity="0.3" d="M289.572 37.2795C289.23 35.065 287.423 34.2828 285.23 35.5388L94.0811 145.878C92.8688 146.583 91.7668 147.784 90.9843 149.162L66.519 135.213C67.3125 133.891 68.3594 132.757 69.5386 132.096L260.71 21.745C263.123 20.3458 267.057 20.3237 269.504 21.7009L285.219 30.5038C287.434 31.7598 289.274 34.6574 289.572 37.2685V37.2795Z" fill="url(#paint38_linear_292_785)"/>
<path d="M89.7725 286.34V154.009C89.7725 151.222 91.7341 147.828 94.1476 146.429L284.867 36.3541C287.28 34.9549 289.242 36.0897 289.242 38.8771V171.207C289.242 173.995 287.28 177.388 284.867 178.787L94.1476 288.863C91.7341 290.262 89.7725 289.127 89.7725 286.34Z" fill="url(#paint39_linear_292_785)"/>
<path opacity="0.2" d="M94.1032 287.717C91.8 289.05 87.5792 289.105 85.4081 287.772L69.8914 279.057C67.489 277.713 65.5273 274.375 65.5273 271.609V140.601C65.5273 139.158 66.0673 137.582 66.9049 136.183L91.0506 149.966C90.2461 151.31 89.7722 152.852 89.7722 154.23V285.227C89.7722 287.761 91.5575 289.215 94.1032 287.739V287.717Z" fill="url(#paint40_linear_292_785)"/>
<path d="M143.574 180.33L141.601 179.184C140.113 178.325 138.295 178.325 136.807 179.184L125.037 185.982V170.304L147.034 157.612C149.106 156.411 150.384 154.197 150.384 151.806V142.893C150.384 140.469 149.095 138.232 146.99 137.02C144.896 135.808 142.306 135.808 140.212 137.02L109.928 154.505C106.325 156.587 104.099 160.432 104.099 164.586V247.338C104.099 249.74 105.377 251.965 107.46 253.166C109.543 254.367 112.11 254.367 114.193 253.166L121.676 248.847C123.748 247.646 125.026 245.432 125.026 243.041V210.705L143.563 200.007C145.05 199.148 145.965 197.572 145.965 195.853V184.494C145.965 182.787 145.05 181.2 143.563 180.341L143.574 180.33Z" fill="#E0E0E0"/>
<path opacity="0.1" d="M114.656 252.086L114.028 252.461C113.003 253.056 111.857 253.353 110.722 253.353C109.587 253.353 108.441 253.056 107.416 252.461C105.366 251.293 104.11 249.101 104.11 246.743V165.126C104.11 163.198 104.606 161.347 105.487 159.705L112.1 163.517C111.207 165.159 110.722 167.01 110.722 168.938V249.795C110.722 251.811 112.915 253.1 114.667 252.097L114.656 252.086Z" fill="url(#paint41_linear_292_785)"/>
<path d="M125.037 169.896V193.782L143.552 183.095C144.632 182.467 145.976 183.249 145.976 184.494V195.831C145.976 197.539 145.062 199.115 143.596 199.963L125.037 210.672V243.03C125.037 245.421 123.759 247.635 121.687 248.825L114.744 252.836C112.948 253.871 110.711 252.582 110.711 250.511V165.776C110.711 163.165 112.1 160.752 114.37 159.441L147.001 140.601C148.015 140.017 149.282 140.744 149.282 141.923V152.059C149.282 154.439 148.015 156.642 145.954 157.832L125.037 169.907V169.896Z" fill="#FAFAFA"/>
<path d="M188.945 120.098C188.372 118.148 187.071 116.484 185.308 115.47C184.074 114.765 182.707 114.413 181.341 114.413C179.974 114.413 178.608 114.765 177.373 115.47L169.957 119.756C168.028 120.869 166.651 122.742 166.177 124.923L144.07 225.556C143.684 227.319 144.489 229.115 146.042 230.018L148.07 231.186C149.349 231.924 150.925 231.924 152.203 231.186L161.14 226.03C162.298 225.358 163.278 224.311 164.072 222.89C164.865 221.48 165.416 220.081 165.714 218.704L169.307 200.349L187.38 189.915L189.253 197.374C189.65 198.52 190.212 199.313 190.962 199.754C191.711 200.194 196.924 203.18 197.673 203.632C198.422 204.072 199.414 203.94 200.638 203.235L211.548 196.933L188.945 120.098ZM174.255 174.997L178.134 155.034C178.211 154.692 178.288 154.34 178.365 153.976L182.465 170.249L174.255 174.997Z" fill="#E0E0E0"/>
<path opacity="0.1" d="M197.585 203.577C196.604 202.993 191.689 200.183 190.962 199.754C190.212 199.313 189.65 198.52 189.253 197.374L187.38 189.915L192.383 187.028L195.965 201.241C196.35 202.343 196.879 203.114 197.585 203.577Z" fill="url(#paint42_linear_292_785)"/>
<path opacity="0.1" d="M188.747 174.127L182.035 170.249L177.936 153.976C177.936 153.976 177.936 153.921 177.936 153.899C178.288 152.313 178.641 150.506 179.027 148.501C179.5 146 179.941 143.333 180.36 140.48C180.834 142.771 181.308 144.887 181.782 146.815C182.256 148.743 182.696 150.396 183.115 151.784L188.736 174.127H188.747Z" fill="url(#paint43_linear_292_785)"/>
<path opacity="0.1" d="M150.902 228.895C150.638 230.096 151.773 231.065 152.853 230.746L152.831 230.834L152.203 231.186C150.925 231.925 149.349 231.925 148.07 231.186L146.042 230.018C144.489 229.115 143.684 227.319 144.07 225.556L166.177 124.923C166.375 123.987 166.761 123.105 167.279 122.312L173.99 126.19C173.461 126.973 173.087 127.854 172.888 128.79L150.902 228.895Z" fill="url(#paint44_linear_292_785)"/>
<path d="M211.559 196.933L200.637 203.235C199.414 203.94 198.433 204.072 197.684 203.632C196.934 203.191 196.361 202.398 195.976 201.252L192.394 187.028L169.306 200.349L165.725 218.704C165.416 220.081 164.876 221.469 164.083 222.89C163.289 224.311 162.308 225.358 161.14 226.03L153.239 230.591C152.048 231.274 150.616 230.228 150.913 228.884L172.899 128.779C173.373 126.598 174.75 124.725 176.679 123.612L183.809 119.503C185.98 118.247 188.746 119.359 189.452 121.761L211.559 196.922V196.933ZM189.187 174.127L183.567 151.784C183.148 150.407 182.707 148.743 182.233 146.815C181.759 144.887 181.285 142.771 180.812 140.48C180.393 143.333 179.952 146 179.478 148.5C179.004 151.001 178.563 153.183 178.145 155.045L172.557 183.723L189.187 174.127Z" fill="#FAFAFA"/>
<path d="M263.795 158.438C265.68 155.21 267.366 151.784 268.853 148.148C270.341 144.512 271.586 140.766 272.6 136.932C273.614 133.098 274.397 129.176 274.937 125.166C275.477 121.155 275.752 117.145 275.752 113.124C275.752 106.414 274.992 100.586 273.482 95.6389C271.961 90.7031 269.834 86.8911 267.09 84.2028C266.098 83.2443 265.051 82.4401 263.916 81.801C262.814 81.173 258.395 78.606 257.304 77.978C255.254 76.7771 252.962 76.105 250.438 75.9618C246.559 75.7415 242.261 76.9974 237.544 79.7187C232.817 82.4401 228.508 86.1419 224.629 90.8243C220.738 95.5067 217.41 100.784 214.644 106.656C211.878 112.529 209.74 118.809 208.23 125.496C206.709 132.184 205.96 138.904 205.96 145.658C205.96 152.412 206.709 158.262 208.23 163.209C209.74 168.145 211.878 171.968 214.644 174.667C215.636 175.647 216.716 176.452 217.851 177.091C218.942 177.708 223.306 180.242 224.386 180.87C226.458 182.082 228.772 182.754 231.34 182.886C235.219 183.073 239.528 181.806 244.256 179.085C246.262 177.928 248.168 176.606 249.975 175.119L252.708 178.259C253.116 178.666 253.535 178.997 253.965 179.239C254.736 179.691 260.224 182.842 260.643 183.095C261.426 183.558 262.241 183.756 263.101 183.69C264.423 183.591 265.922 183.062 267.586 182.093L279.168 175.416L263.795 158.438ZM253.458 130.785C252.675 134.927 251.562 138.706 250.097 142.11C248.642 145.526 246.857 148.512 244.752 151.068C242.636 153.635 240.233 155.695 237.544 157.248C235.043 158.703 232.795 159.419 230.8 159.43C229.731 157.81 228.882 155.695 228.254 153.073C227.472 149.823 227.086 145.878 227.086 141.218C227.086 136.558 227.472 132.217 228.254 128.063C229.026 123.921 230.15 120.142 231.604 116.737C233.059 113.333 234.855 110.325 236.982 107.736C239.109 105.136 241.534 103.054 244.256 101.478C246.702 100.068 248.906 99.3628 250.879 99.3628C251.959 100.993 252.819 103.131 253.458 105.775C254.229 109.025 254.626 112.958 254.626 117.575C254.626 122.191 254.229 126.631 253.458 130.785Z" fill="#E0E0E0"/>
<path opacity="0.1" d="M224.111 180.704C222.711 179.9 218.865 177.664 217.851 177.091C216.716 176.452 215.636 175.647 214.644 174.667C211.878 171.968 209.74 168.145 208.23 163.209C206.709 158.262 205.96 152.412 205.96 145.658C205.96 138.904 206.709 132.184 208.23 125.496C209.63 119.304 211.569 113.465 214.049 107.967L220.76 111.846C218.281 117.332 216.341 123.171 214.942 129.374C213.421 136.062 212.671 142.782 212.671 149.536C212.671 156.29 213.421 162.14 214.942 167.076C216.451 172.023 218.589 175.846 221.355 178.545C222.215 179.382 223.141 180.11 224.111 180.704Z" fill="url(#paint45_linear_292_785)"/>
<path opacity="0.1" d="M256.808 102.183C255.353 100.465 253.568 99.528 251.463 99.3738C251.276 99.3628 251.077 99.3738 250.879 99.3738C251.959 101.004 252.819 103.142 253.458 105.775C254.229 109.025 254.626 112.958 254.626 117.575C254.626 122.191 254.229 126.631 253.458 130.784C252.675 134.927 251.562 138.706 250.097 142.11C248.642 145.526 246.857 148.512 244.752 151.068C242.636 153.635 240.233 155.695 237.544 157.248C235.043 158.703 232.794 159.419 230.8 159.43C231.042 159.826 231.318 160.19 231.604 160.532C233.059 162.261 234.855 163.187 236.982 163.297C239.109 163.418 241.534 162.702 244.256 161.126C246.945 159.573 249.347 157.513 251.463 154.946C253.568 152.379 255.353 149.393 256.808 145.989C258.274 142.584 259.387 138.805 260.169 134.652C260.941 130.509 261.337 126.102 261.337 121.442C261.337 116.781 260.941 112.892 260.169 109.642C259.387 106.392 258.274 103.902 256.808 102.183Z" fill="url(#paint46_linear_292_785)"/>
<path opacity="0.1" d="M251.882 173.466C251.254 174.039 250.626 174.59 249.976 175.119L252.709 178.259C253.116 178.666 253.535 178.997 253.965 179.239C254.714 179.68 259.883 182.644 260.588 183.062C260.192 182.82 259.795 182.511 259.42 182.126L251.882 173.466Z" fill="url(#paint47_linear_292_785)"/>
<path d="M279.169 175.405L267.586 182.093C265.922 183.051 264.423 183.58 263.112 183.679C261.79 183.778 260.566 183.261 259.42 182.115L251.882 173.444C249.524 175.614 246.978 177.487 244.256 179.063C239.528 181.784 235.23 183.051 231.34 182.864C227.45 182.677 224.122 181.222 221.367 178.523C218.601 175.824 216.463 172.001 214.953 167.054C213.443 162.118 212.683 156.268 212.683 149.514C212.683 142.76 213.443 136.04 214.953 129.352C216.463 122.665 218.601 116.385 221.367 110.512C224.133 104.64 227.461 99.3628 231.34 94.6804C235.23 89.998 239.539 86.2962 244.256 83.5638C248.973 80.8425 253.271 79.5865 257.15 79.8069C261.029 80.0272 264.335 81.4815 267.09 84.1698C269.834 86.8581 271.972 90.6701 273.482 95.6169C274.992 100.564 275.752 106.381 275.752 113.102C275.752 117.123 275.477 121.133 274.937 125.144C274.397 129.154 273.614 133.076 272.601 136.91C271.587 140.744 270.341 144.479 268.854 148.115C267.366 151.751 265.68 155.188 263.795 158.416L279.169 175.383V175.405ZM227.086 141.207C227.086 145.867 227.472 149.823 228.254 153.073C229.037 156.323 230.15 158.813 231.605 160.532C233.059 162.261 234.856 163.176 236.983 163.297C239.11 163.418 241.534 162.691 244.256 161.116C246.945 159.562 249.347 157.502 251.463 154.935C253.568 152.368 255.365 149.382 256.819 145.978C258.274 142.573 259.398 138.794 260.17 134.641C260.952 130.498 261.338 126.091 261.338 121.431C261.338 116.77 260.952 112.881 260.17 109.631C259.387 106.381 258.274 103.891 256.819 102.172C255.365 100.454 253.579 99.5171 251.463 99.3628C249.347 99.2086 246.945 99.9137 244.256 101.467C241.534 103.043 239.11 105.125 236.983 107.714C234.856 110.314 233.07 113.311 231.605 116.715C230.15 120.12 229.026 123.899 228.254 128.052C227.472 132.195 227.086 136.58 227.086 141.196V141.207Z" fill="#FAFAFA"/>
</g>
</g>
<defs>
<linearGradient id="paint0_linear_292_785" x1="112" y1="40" x2="120.564" y2="67.9331" gradientUnits="userSpaceOnUse">
<stop stop-color="#EBBA7B"/>
<stop offset="0.348958" stop-color="#E064AF"/>
<stop offset="1" stop-color="#5227EF"/>
</linearGradient>
<linearGradient id="paint1_linear_292_785" x1="37" y1="31.5" x2="51.6285" y2="72.8302" gradientUnits="userSpaceOnUse">
<stop stop-color="#EBBA7B"/>
<stop offset="0.348958" stop-color="#E064AF"/>
<stop offset="1" stop-color="#5227EF"/>
</linearGradient>
<linearGradient id="paint2_linear_292_785" x1="104.098" y1="266.919" x2="272.885" y2="504.797" gradientUnits="userSpaceOnUse">
<stop stop-color="#EBBA7B"/>
<stop offset="0.354167" stop-color="#E064AF"/>
<stop offset="0.807292" stop-color="#5227EF"/>
</linearGradient>
<linearGradient id="paint3_linear_292_785" x1="104.096" y1="299.957" x2="229.772" y2="517.598" gradientUnits="userSpaceOnUse">
<stop stop-color="#EBBA7B"/>
<stop offset="0.354167" stop-color="#E064AF"/>
<stop offset="0.807292" stop-color="#5227EF"/>
</linearGradient>
<linearGradient id="paint4_linear_292_785" x1="103.928" y1="267.062" x2="228.71" y2="484.358" gradientUnits="userSpaceOnUse">
<stop stop-color="#EBBA7B"/>
<stop offset="0.354167" stop-color="#E064AF"/>
<stop offset="0.807292" stop-color="#5227EF"/>
</linearGradient>
<linearGradient id="paint5_linear_292_785" x1="115.824" y1="278.98" x2="162.811" y2="417.368" gradientUnits="userSpaceOnUse">
<stop stop-color="#EBBA7B"/>
<stop offset="0.354167" stop-color="#E064AF"/>
<stop offset="0.807292" stop-color="#5227EF"/>
</linearGradient>
<linearGradient id="paint6_linear_292_785" x1="115.824" y1="280.005" x2="190.468" y2="371.104" gradientUnits="userSpaceOnUse">
<stop stop-color="#EBBA7B"/>
<stop offset="0.354167" stop-color="#E064AF"/>
<stop offset="0.807292" stop-color="#5227EF"/>
</linearGradient>
<linearGradient id="paint7_linear_292_785" x1="138" y1="313" x2="215.033" y2="463.841" gradientUnits="userSpaceOnUse">
<stop stop-color="#EBBA7B"/>
<stop offset="0.348958" stop-color="#E064AF"/>
<stop offset="0.844151" stop-color="#5227EF"/>
</linearGradient>
<linearGradient id="paint8_linear_292_785" x1="310.577" y1="393.647" x2="348.642" y2="438.66" gradientUnits="userSpaceOnUse">
<stop stop-color="#EBBA7B"/>
<stop offset="0.328125" stop-color="#E064AF"/>
<stop offset="0.828125" stop-color="#5227EF"/>
</linearGradient>
<linearGradient id="paint9_linear_292_785" x1="310.588" y1="403.367" x2="337.427" y2="442.389" gradientUnits="userSpaceOnUse">
<stop stop-color="#EBBA7B"/>
<stop offset="0.328125" stop-color="#E064AF"/>
<stop offset="0.828125" stop-color="#5227EF"/>
</linearGradient>
<linearGradient id="paint10_linear_292_785" x1="339.747" y1="409.299" x2="420.837" y2="522.7" gradientUnits="userSpaceOnUse">
<stop stop-color="#EBBA7B"/>
<stop offset="0.328125" stop-color="#E064AF"/>
<stop offset="0.828125" stop-color="#5227EF"/>
</linearGradient>
<linearGradient id="paint11_linear_292_785" x1="339.725" y1="424.785" x2="400.671" y2="529.108" gradientUnits="userSpaceOnUse">
<stop stop-color="#EBBA7B"/>
<stop offset="0.328125" stop-color="#E064AF"/>
<stop offset="0.828125" stop-color="#5227EF"/>
</linearGradient>
<linearGradient id="paint12_linear_292_785" x1="339.725" y1="409.301" x2="372.542" y2="435.991" gradientUnits="userSpaceOnUse">
<stop stop-color="#EBBA7B"/>
<stop offset="0.328125" stop-color="#E064AF"/>
<stop offset="0.828125" stop-color="#5227EF"/>
</linearGradient>
<linearGradient id="paint13_linear_292_785" x1="339.726" y1="424.785" x2="355.541" y2="434.425" gradientUnits="userSpaceOnUse">
<stop stop-color="#EBBA7B"/>
<stop offset="0.328125" stop-color="#E064AF"/>
<stop offset="0.828125" stop-color="#5227EF"/>
</linearGradient>
<linearGradient id="paint14_linear_292_785" x1="41.624" y1="455.589" x2="62.8344" y2="515.21" gradientUnits="userSpaceOnUse">
<stop stop-color="#EBBA7B"/>
<stop offset="0.348958" stop-color="#E064AF"/>
<stop offset="1" stop-color="#5227EF"/>
</linearGradient>
<linearGradient id="paint15_linear_292_785" x1="41.624" y1="455.589" x2="62.8344" y2="515.21" gradientUnits="userSpaceOnUse">
<stop stop-color="#EBBA7B"/>
<stop offset="0.348958" stop-color="#E064AF"/>
<stop offset="1" stop-color="#5227EF"/>
</linearGradient>
<linearGradient id="paint16_linear_292_785" x1="75.8423" y1="434.733" x2="130.424" y2="493.996" gradientUnits="userSpaceOnUse">
<stop stop-color="#EBBA7B"/>
<stop offset="0.348958" stop-color="#E064AF"/>
<stop offset="1" stop-color="#5227EF"/>
</linearGradient>
<linearGradient id="paint17_linear_292_785" x1="75.8423" y1="434.733" x2="130.424" y2="493.996" gradientUnits="userSpaceOnUse">
<stop stop-color="#EBBA7B"/>
<stop offset="0.348958" stop-color="#E064AF"/>
<stop offset="1" stop-color="#5227EF"/>
</linearGradient>
<linearGradient id="paint18_linear_292_785" x1="75.8423" y1="449.728" x2="112.3" y2="504.561" gradientUnits="userSpaceOnUse">
<stop stop-color="#EBBA7B"/>
<stop offset="0.348958" stop-color="#E064AF"/>
<stop offset="1" stop-color="#5227EF"/>
</linearGradient>
<linearGradient id="paint19_linear_292_785" x1="75.8423" y1="449.728" x2="112.3" y2="504.561" gradientUnits="userSpaceOnUse">
<stop stop-color="#EBBA7B"/>
<stop offset="0.348958" stop-color="#E064AF"/>
<stop offset="1" stop-color="#5227EF"/>
</linearGradient>
<linearGradient id="paint20_linear_292_785" x1="64.4697" y1="444.623" x2="67.5807" y2="447.23" gradientUnits="userSpaceOnUse">
<stop stop-color="#EBBA7B"/>
<stop offset="0.348958" stop-color="#E064AF"/>
<stop offset="1" stop-color="#5227EF"/>
</linearGradient>
<linearGradient id="paint21_linear_292_785" x1="42.3359" y1="316.528" x2="109.27" y2="335.787" gradientUnits="userSpaceOnUse">
<stop stop-color="#EBBA7B"/>
<stop offset="0.348958" stop-color="#E064AF"/>
<stop offset="1" stop-color="#5227EF"/>
</linearGradient>
<linearGradient id="paint22_linear_292_785" x1="82.4009" y1="313.08" x2="84.1981" y2="315.999" gradientUnits="userSpaceOnUse">
<stop stop-color="#EBBA7B"/>
<stop offset="0.348958" stop-color="#E064AF"/>
<stop offset="1" stop-color="#5227EF"/>
</linearGradient>
<linearGradient id="paint23_linear_292_785" x1="324.727" y1="40.8383" x2="354.741" y2="97.872" gradientUnits="userSpaceOnUse">
<stop offset="0.213542" stop-color="#EBBA7B"/>
<stop offset="0.494792" stop-color="#E064AF"/>
<stop offset="0.802083" stop-color="#5227EF"/>
</linearGradient>
<linearGradient id="paint24_linear_292_785" x1="324.727" y1="37.4779" x2="329.777" y2="67.2617" gradientUnits="userSpaceOnUse">
<stop offset="0.213542" stop-color="#EBBA7B"/>
<stop offset="0.494792" stop-color="#E064AF"/>
<stop offset="0.802083" stop-color="#5227EF"/>
</linearGradient>
<linearGradient id="paint25_linear_292_785" x1="324.297" y1="40.8383" x2="345.347" y2="92.7559" gradientUnits="userSpaceOnUse">
<stop offset="0.213542" stop-color="#EBBA7B"/>
<stop offset="0.494792" stop-color="#E064AF"/>
<stop offset="0.802083" stop-color="#5227EF"/>
</linearGradient>
<linearGradient id="paint26_linear_292_785" x1="387.312" y1="61.6061" x2="396.336" y2="72.1355" gradientUnits="userSpaceOnUse">
<stop offset="0.213542" stop-color="#EBBA7B"/>
<stop offset="0.494792" stop-color="#E064AF"/>
<stop offset="0.802083" stop-color="#5227EF"/>
</linearGradient>
<linearGradient id="paint27_linear_292_785" x1="411.175" y1="58.312" x2="412.87" y2="61.2889" gradientUnits="userSpaceOnUse">
<stop stop-color="#EBBA7B"/>
<stop offset="0.348958" stop-color="#E064AF"/>
<stop offset="1" stop-color="#5227EF"/>
</linearGradient>
<linearGradient id="paint28_linear_292_785" x1="419.752" y1="60.8405" x2="497.045" y2="128.551" gradientUnits="userSpaceOnUse">
<stop stop-color="#EBBA7B"/>
<stop offset="0.348958" stop-color="#E064AF"/>
<stop offset="1" stop-color="#5227EF"/>
</linearGradient>
<linearGradient id="paint29_linear_292_785" x1="446.684" y1="312.247" x2="466.434" y2="337.664" gradientUnits="userSpaceOnUse">
<stop stop-color="#EBBA7B"/>
<stop offset="0.348958" stop-color="#E064AF"/>
<stop offset="1" stop-color="#5227EF"/>
</linearGradient>
<linearGradient id="paint30_linear_292_785" x1="416.963" y1="297.523" x2="434.806" y2="307.59" gradientUnits="userSpaceOnUse">
<stop stop-color="#EBBA7B"/>
<stop offset="0.348958" stop-color="#E064AF"/>
<stop offset="1" stop-color="#5227EF"/>
</linearGradient>
<linearGradient id="paint31_linear_292_785" x1="396.715" y1="129.857" x2="416.263" y2="247.982" gradientUnits="userSpaceOnUse">
<stop stop-color="#EBBA7B"/>
<stop offset="0.348958" stop-color="#E064AF"/>
<stop offset="1" stop-color="#5227EF"/>
</linearGradient>
<linearGradient id="paint32_linear_292_785" x1="401.639" y1="136.069" x2="421.605" y2="248.304" gradientUnits="userSpaceOnUse">
<stop stop-color="#EBBA7B"/>
<stop offset="0.348958" stop-color="#E064AF"/>
<stop offset="1" stop-color="#5227EF"/>
</linearGradient>
<linearGradient id="paint33_linear_292_785" x1="377.215" y1="190.357" x2="383.755" y2="260.773" gradientUnits="userSpaceOnUse">
<stop stop-color="#EBBA7B"/>
<stop offset="0.348958" stop-color="#E064AF"/>
<stop offset="1" stop-color="#5227EF"/>
</linearGradient>
<linearGradient id="paint34_linear_292_785" x1="153.448" y1="197.286" x2="230.583" y2="266.44" gradientUnits="userSpaceOnUse">
<stop stop-color="#EBBA7B"/>
<stop offset="0.348958" stop-color="#E064AF"/>
<stop offset="0.869792" stop-color="#5227EF"/>
</linearGradient>
<linearGradient id="paint35_linear_292_785" x1="153.448" y1="197.286" x2="230.583" y2="266.44" gradientUnits="userSpaceOnUse">
<stop stop-color="#EBBA7B"/>
<stop offset="0.348958" stop-color="#E064AF"/>
<stop offset="0.869792" stop-color="#5227EF"/>
</linearGradient>
<linearGradient id="paint36_linear_292_785" x1="170.894" y1="207.345" x2="235.988" y2="257.353" gradientUnits="userSpaceOnUse">
<stop stop-color="#EBBA7B"/>
<stop offset="0.348958" stop-color="#E064AF"/>
<stop offset="0.869792" stop-color="#5227EF"/>
</linearGradient>
<linearGradient id="paint37_linear_292_785" x1="65.5273" y1="20.4944" x2="335.015" y2="246.516" gradientUnits="userSpaceOnUse">
<stop stop-color="#EBBA7B"/>
<stop offset="0.348958" stop-color="#E064AF"/>
<stop offset="0.869792" stop-color="#5227EF"/>
</linearGradient>
<linearGradient id="paint38_linear_292_785" x1="276.5" y1="21" x2="76.9145" y2="23.7334" gradientUnits="userSpaceOnUse">
<stop stop-color="#EBBA7B"/>
<stop offset="0.348958" stop-color="#E064AF"/>
<stop offset="1" stop-color="#5227EF"/>
</linearGradient>
<linearGradient id="paint39_linear_292_785" x1="289" y1="36" x2="153.852" y2="329.82" gradientUnits="userSpaceOnUse">
<stop stop-color="#EBBA7B"/>
<stop offset="0.432459" stop-color="#E064AF"/>
<stop offset="1" stop-color="#5227EF"/>
</linearGradient>
<linearGradient id="paint40_linear_292_785" x1="75" y1="111" x2="134.36" y2="132.105" gradientUnits="userSpaceOnUse">
<stop offset="1" stop-color="#5227EF"/>
</linearGradient>
<linearGradient id="paint41_linear_292_785" x1="104.11" y1="159.705" x2="125.394" y2="162.117" gradientUnits="userSpaceOnUse">
<stop stop-color="#EBBA7B"/>
<stop offset="0.348958" stop-color="#E064AF"/>
<stop offset="0.869792" stop-color="#5227EF"/>
</linearGradient>
<linearGradient id="paint42_linear_292_785" x1="187.38" y1="187.028" x2="202.433" y2="196.359" gradientUnits="userSpaceOnUse">
<stop stop-color="#EBBA7B"/>
<stop offset="0.348958" stop-color="#E064AF"/>
<stop offset="0.869792" stop-color="#5227EF"/>
</linearGradient>
<linearGradient id="paint43_linear_292_785" x1="177.936" y1="140.48" x2="197.926" y2="146.936" gradientUnits="userSpaceOnUse">
<stop stop-color="#EBBA7B"/>
<stop offset="0.348958" stop-color="#E064AF"/>
<stop offset="0.869792" stop-color="#5227EF"/>
</linearGradient>
<linearGradient id="paint44_linear_292_785" x1="143.974" y1="122.312" x2="200.934" y2="138.017" gradientUnits="userSpaceOnUse">
<stop stop-color="#EBBA7B"/>
<stop offset="0.348958" stop-color="#E064AF"/>
<stop offset="0.869792" stop-color="#5227EF"/>
</linearGradient>
<linearGradient id="paint45_linear_292_785" x1="205.96" y1="107.967" x2="240.828" y2="116.713" gradientUnits="userSpaceOnUse">
<stop stop-color="#EBBA7B"/>
<stop offset="0.348958" stop-color="#E064AF"/>
<stop offset="0.869792" stop-color="#5227EF"/>
</linearGradient>
<linearGradient id="paint46_linear_292_785" x1="230.8" y1="99.3689" x2="281.476" y2="123.696" gradientUnits="userSpaceOnUse">
<stop stop-color="#EBBA7B"/>
<stop offset="0.348958" stop-color="#E064AF"/>
<stop offset="0.869792" stop-color="#5227EF"/>
</linearGradient>
<linearGradient id="paint47_linear_292_785" x1="249.976" y1="173.466" x2="259.668" y2="184.241" gradientUnits="userSpaceOnUse">
<stop stop-color="#EBBA7B"/>
<stop offset="0.348958" stop-color="#E064AF"/>
<stop offset="0.869792" stop-color="#5227EF"/>
</linearGradient>
<clipPath id="clip0_292_785">
<rect width="517" height="507" fill="white" transform="translate(0 0.5)"/>
</clipPath>
<clipPath id="clip1_292_785">
<rect width="517" height="507" fill="white" transform="translate(0 20.5)"/>
</clipPath>
</defs>
</svg>
