<svg width="25" height="22" viewBox="0 0 25 22" fill="none" xmlns="http://www.w3.org/2000/svg">
<path d="M11.5397 17.6604C11.5741 17.6971 11.9909 18.0767 12.5019 18.0767C13.013 18.0767 13.3894 17.7399 13.4693 17.6548L18.6396 12.485C19.154 11.9706 19.154 11.1366 18.6401 10.6223C18.1257 10.1075 17.2913 10.1079 16.7774 10.6218L13.8191 13.5796V1.57978C13.8191 0.852648 13.2291 0.262573 12.5019 0.262573C11.7748 0.262573 11.1847 0.852648 11.1847 1.57978V13.5792L8.2274 10.6218C7.71306 10.1079 6.87907 10.1079 6.36427 10.6218C5.84993 11.1362 5.84993 11.9702 6.36427 12.485L11.5397 17.6604Z" fill="#110B1D"/>
<path d="M24.9986 14.8028V14.695H24.9879C24.9312 14.2011 24.5168 13.8169 24.0085 13.8169C23.5002 13.8169 23.0858 14.2011 23.0295 14.695H23.0235V14.7536C23.0226 14.7717 23.0179 14.7889 23.0179 14.8075C23.0179 14.8261 23.0226 14.8432 23.0235 14.8614V17.289C23.0235 18.6299 22.2541 19.7627 21.3429 19.7627H3.6617C2.75058 19.7627 1.98069 18.6299 1.98069 17.289V14.695H1.97001C1.91333 14.2011 1.49888 13.8169 0.990586 13.8169C0.482288 13.8169 0.068311 14.2011 0.0116269 14.695H0.0055866V14.7513C0.00465735 14.7703 0 14.7884 0 14.8075C0 14.8265 0.00465735 14.8446 0.0055866 14.8637V17.289C0.0055866 19.7422 1.64617 21.7383 3.66217 21.7383H21.3434C23.3594 21.7383 24.9995 19.7422 24.9995 17.289V14.8121C24.9995 14.8107 25 14.8089 25 14.8075C25 14.8061 24.9986 14.8042 24.9986 14.8028Z" fill="#110B1D"/>
</svg>
