<svg width="25" height="22" viewBox="0 0 25 22" fill="none" xmlns="http://www.w3.org/2000/svg">
<path d="M14.0823 0.0964355C9.95222 0.0964355 6.34823 2.41141 4.48047 5.80494C4.55939 5.80494 4.612 5.80494 4.69092 5.80494C5.45381 5.80494 6.2167 6.06801 6.82175 6.56783C8.32122 4.12133 11.0045 2.49033 14.0823 2.49033C18.7912 2.49033 22.6056 6.30477 22.6056 11.0136C22.6056 15.7225 18.7649 19.5369 14.0823 19.5369C12.2935 19.5369 10.6362 18.9845 9.24194 18.0375L8.11076 20.142C9.82069 21.2468 11.8726 21.9045 14.0823 21.9045C20.1065 21.9045 24.9995 17.0115 24.9995 10.9873C24.9995 4.98944 20.1065 0.0964355 14.0823 0.0964355Z" fill="#110B1D"/>
<path d="M14.0832 4.91003C13.4255 4.91003 12.8994 5.43616 12.8994 6.09383V11.0131C12.8994 11.6708 13.4255 12.1969 14.0832 12.1969H18.0029C18.6605 12.1969 19.1867 11.6708 19.1867 11.0131C19.1867 10.3555 18.6605 9.82935 18.0029 9.82935H15.267V6.09383C15.267 5.43616 14.7409 4.91003 14.0832 4.91003Z" fill="#110B1D"/>
<path d="M7.66403 12.8811L5.98041 13.1442C5.79627 13.1705 5.61212 13.0127 5.61212 12.8285V9.11932C5.61212 8.17228 4.3231 7.8303 3.87589 8.67211L0.114067 15.7486C-0.254224 16.4062 0.324519 17.1954 1.0611 17.0902L2.74471 16.8271C2.92886 16.8008 3.11301 16.9587 3.11301 17.1428V20.852C3.11301 21.799 4.40202 22.141 4.84923 21.2992L8.63737 14.2228C8.97935 13.5388 8.42692 12.7496 7.66403 12.8811Z" fill="#110B1D"/>
</svg>
