<svg width="25" height="29" viewBox="0 0 25 29" fill="none" xmlns="http://www.w3.org/2000/svg">
<path d="M3.77104 21.8928L11.7585 28.4106C11.9741 28.5869 12.2369 28.6745 12.4994 28.6745C12.7619 28.6745 13.0247 28.5866 13.2401 28.4108L21.2287 21.8931C21.2545 21.8723 21.2791 21.8503 21.3025 21.8274C23.376 19.8222 25 15.9941 25 13.1114V4.96339C25 4.31618 24.4753 3.79144 23.8281 3.79144C19.9392 3.79144 16.2145 1.95177 13.0839 0.152247C13.0734 0.146094 13.0622 0.143458 13.0517 0.137891C13.0133 0.117382 12.9735 0.100681 12.9333 0.0845671C12.9011 0.0713827 12.8692 0.0579053 12.8361 0.0479438C12.7983 0.0365173 12.7593 0.0294856 12.72 0.0218679C12.6846 0.0151292 12.6497 0.00721855 12.614 0.0037027C12.5738 -0.000399116 12.5343 0.000479848 12.4938 0.000772835C12.4593 0.00106582 12.425 -0.000106142 12.3904 0.0034097C12.3497 0.00721853 12.3101 0.0157152 12.2697 0.0236258C12.2354 0.0306575 12.2012 0.0368102 12.1672 0.0467718C12.1314 0.0573193 12.0966 0.0722617 12.0617 0.086618C12.0236 0.101853 11.9861 0.117382 11.9498 0.136719C11.9386 0.142872 11.9269 0.145508 11.9161 0.151954C8.78492 1.95148 5.06018 3.79115 1.17195 3.79115C0.52474 3.79115 0 4.31589 0 4.96309V13.1114C0 15.9941 1.62403 19.8222 3.6975 21.8274C3.72094 21.85 3.74555 21.8723 3.77104 21.8928ZM19.8885 19.918L5.50376 5.53442C8.03224 4.85908 10.3879 3.70266 12.5 2.51577C15.4691 4.18404 18.9188 5.79488 22.6561 6.08436V13.1114C22.6561 15.2581 21.4092 18.2876 19.8885 19.918ZM2.3439 6.08436C2.46578 6.07498 2.58825 6.06678 2.70954 6.05447L18.087 21.431L12.4994 25.9899L5.2931 20.1096C3.69076 18.5343 2.3439 15.3433 2.3439 13.1114V6.08436Z" fill="#110B1D"/>
</svg>
