<svg width="31" height="27" viewBox="0 0 31 27" fill="none" xmlns="http://www.w3.org/2000/svg">
<path d="M10.5508 10.1542C10.3708 10.1542 10.198 10.2257 10.0707 10.3531C9.94336 10.4804 9.87182 10.6531 9.87182 10.8332V16.7725C9.87182 16.9526 9.94336 17.1253 10.0707 17.2526C10.198 17.38 10.3708 17.4515 10.5508 17.4515C10.7309 17.4515 10.9037 17.38 11.031 17.2526C11.1583 17.1253 11.2299 16.9526 11.2299 16.7725V14.9934C11.2299 14.8938 11.3485 14.8431 11.42 14.9119L13.8247 17.169C13.8897 17.2301 13.9661 17.2777 14.0496 17.3092C14.133 17.3408 14.2219 17.3555 14.311 17.3527C14.4002 17.3499 14.4879 17.3295 14.5692 17.2928C14.6505 17.2561 14.7238 17.2037 14.7848 17.1387C14.8459 17.0737 14.8935 16.9972 14.9251 16.9138C14.9566 16.8303 14.9713 16.7415 14.9685 16.6523C14.9657 16.5632 14.9454 16.4754 14.9086 16.3942C14.8719 16.3129 14.8195 16.2396 14.7545 16.1785L13.1375 14.6602C13.0678 14.595 13.1058 14.4746 13.1991 14.452C13.7161 14.3255 14.1689 14.0143 14.4723 13.577C14.7757 13.1397 14.9086 12.6065 14.846 12.078C14.7834 11.5494 14.5297 11.0621 14.1326 10.7077C13.7355 10.3533 13.2225 10.1564 12.6903 10.1542H10.5499H10.5508ZM11.3431 13.1537C11.313 13.1537 11.2843 13.1418 11.263 13.1205C11.2418 13.0993 11.2299 13.0705 11.2299 13.0405V11.6254C11.2299 11.5629 11.2806 11.5122 11.3431 11.5122H12.6903C12.8003 11.5086 12.91 11.5271 13.0128 11.5667C13.1155 11.6063 13.2093 11.6662 13.2885 11.7427C13.3676 11.8193 13.4306 11.911 13.4735 12.0124C13.5165 12.1138 13.5387 12.2228 13.5387 12.333C13.5387 12.4431 13.5165 12.5521 13.4735 12.6535C13.4306 12.7549 13.3676 12.8466 13.2885 12.9232C13.2093 12.9998 13.1155 13.0596 13.0128 13.0992C12.91 13.1388 12.8003 13.1573 12.6903 13.1537H11.3431ZM4.29199 10.9102C4.29199 10.7301 4.36353 10.5574 4.49088 10.43C4.61822 10.3027 4.79093 10.2311 4.97102 10.2311H8.26025C8.44034 10.2311 8.61306 10.3027 8.7404 10.43C8.86774 10.5574 8.93928 10.7301 8.93928 10.9102C8.93928 11.0903 8.86774 11.263 8.7404 11.3903C8.61306 11.5177 8.44034 11.5892 8.26025 11.5892H5.76323C5.73321 11.5892 5.70443 11.6011 5.6832 11.6223C5.66198 11.6436 5.65005 11.6724 5.65005 11.7024V13.1301C5.65005 13.1935 5.70076 13.2433 5.76323 13.2433H8.21589C8.39598 13.2433 8.56869 13.3149 8.69604 13.4422C8.82338 13.5695 8.89492 13.7423 8.89492 13.9223C8.89492 14.1024 8.82338 14.2752 8.69604 14.4025C8.56869 14.5298 8.39598 14.6014 8.21589 14.6014H5.76323C5.73321 14.6014 5.70443 14.6133 5.6832 14.6345C5.66198 14.6557 5.65005 14.6845 5.65005 14.7145V16.7308C5.65005 16.9109 5.57851 17.0836 5.45117 17.211C5.32383 17.3383 5.15111 17.4099 4.97102 17.4099C4.79093 17.4099 4.61822 17.3383 4.49088 17.211C4.36353 17.0836 4.29199 16.9109 4.29199 16.7308V10.9102ZM16.4693 10.2311C16.2892 10.2311 16.1165 10.3027 15.9891 10.43C15.8618 10.5574 15.7903 10.7301 15.7903 10.9102V16.7317C15.7903 17.1066 16.0936 17.4108 16.4693 17.4108H19.7576C19.9377 17.4108 20.1104 17.3392 20.2378 17.2119C20.3651 17.0845 20.4366 16.9118 20.4366 16.7317C20.4366 16.5516 20.3651 16.3789 20.2378 16.2516C20.1104 16.1242 19.9377 16.0527 19.7576 16.0527H17.2615C17.2466 16.0527 17.2318 16.0497 17.218 16.044C17.2042 16.0382 17.1917 16.0298 17.1811 16.0192C17.1706 16.0086 17.1623 15.996 17.1567 15.9822C17.151 15.9684 17.1482 15.9536 17.1483 15.9386V14.7155C17.1483 14.653 17.199 14.6023 17.2615 14.6023H19.7132C19.8933 14.6023 20.066 14.5307 20.1934 14.4034C20.3207 14.2761 20.3923 14.1033 20.3923 13.9233C20.3923 13.7432 20.3207 13.5704 20.1934 13.4431C20.066 13.3158 19.8933 13.2442 19.7132 13.2442H17.2615C17.2315 13.2442 17.2027 13.2323 17.1815 13.2111C17.1602 13.1898 17.1483 13.1611 17.1483 13.131V11.7033C17.1483 11.6399 17.199 11.5901 17.2615 11.5901H19.7576C19.9377 11.5901 20.1104 11.5186 20.2378 11.3912C20.3651 11.2639 20.4366 11.0912 20.4366 10.9111C20.4366 10.731 20.3651 10.5583 20.2378 10.4309C20.1104 10.3036 19.9377 10.232 19.7576 10.232H16.4693V10.2311ZM22.0636 10.2311C21.8835 10.2311 21.7108 10.3027 21.5834 10.43C21.4561 10.5574 21.3846 10.7301 21.3846 10.9102V16.7317C21.3846 17.1066 21.6888 17.4108 22.0636 17.4108H25.3528C25.5329 17.4108 25.7056 17.3392 25.833 17.2119C25.9603 17.0845 26.0319 16.9118 26.0319 16.7317C26.0319 16.5516 25.9603 16.3789 25.833 16.2516C25.7056 16.1242 25.5329 16.0527 25.3528 16.0527H22.8558C22.8409 16.0527 22.8261 16.0497 22.8123 16.044C22.7985 16.0382 22.786 16.0298 22.7755 16.0192C22.7649 16.0086 22.7566 15.996 22.751 15.9822C22.7453 15.9684 22.7425 15.9536 22.7426 15.9386V14.7155C22.7426 14.653 22.7933 14.6023 22.8558 14.6023H25.3085C25.4886 14.6023 25.6613 14.5307 25.7886 14.4034C25.916 14.2761 25.9875 14.1033 25.9875 13.9233C25.9875 13.7432 25.916 13.5704 25.7886 13.4431C25.6613 13.3158 25.4886 13.2442 25.3085 13.2442H22.8558C22.8258 13.2442 22.797 13.2323 22.7758 13.2111C22.7546 13.1898 22.7426 13.1611 22.7426 13.131V11.7033C22.7426 11.6399 22.7933 11.5901 22.8558 11.5901H25.3528C25.5329 11.5901 25.7056 11.5186 25.833 11.3912C25.9603 11.2639 26.0319 11.0912 26.0319 10.9111C26.0319 10.731 25.9603 10.5583 25.833 10.4309C25.7056 10.3036 25.5329 10.232 25.3528 10.232H22.0636V10.2311Z" fill="white"/>
<path d="M5.00751 0.174072C4.34991 0.174072 3.69876 0.289718 3.09122 0.514406C2.48368 0.739094 1.93165 1.06842 1.46666 1.48359C0.527575 2.32207 0 3.45928 0 4.64506V22.529C0 23.7148 0.527575 24.852 1.46666 25.6905C1.93165 26.1056 2.48368 26.435 3.09122 26.6597C3.69876 26.8844 4.34991 27 5.00751 27H25.0375C26.3656 27 27.6393 26.529 28.5784 25.6905C29.5175 24.852 30.045 23.7148 30.045 22.529V4.64506C30.045 4.05792 29.9155 3.47653 29.6639 2.93409C29.4122 2.39164 29.0434 1.89876 28.5784 1.48359C28.1134 1.06842 27.5614 0.739094 26.9538 0.514406C26.3463 0.289718 25.6951 0.174072 25.0375 0.174072H5.00751ZM2.003 4.64506C2.003 3.93359 2.31955 3.25126 2.883 2.74818C3.44646 2.2451 4.21066 1.96247 5.00751 1.96247H25.0375C25.8344 1.96247 26.5986 2.2451 27.162 2.74818C27.7255 3.25126 28.042 3.93359 28.042 4.64506V22.529C28.042 23.2405 27.7255 23.9228 27.162 24.4259C26.5986 24.929 25.8344 25.2116 25.0375 25.2116H5.00751C4.21066 25.2116 3.44646 24.929 2.883 24.4259C2.31955 23.9228 2.003 23.2405 2.003 22.529V4.64506Z" fill="white"/>
</svg>
