<svg width="94" height="115" viewBox="0 0 94 115" fill="none" xmlns="http://www.w3.org/2000/svg">
<path d="M0.130714 39.0699C37.1067 57.6099 38.6607 62.1149 20.5547 113.001C20.4757 113.223 20.8687 113.383 20.9677 113.169C43.5617 64.1099 47.8207 61.9729 87.2297 74.5379C87.4877 74.6199 87.6087 74.3219 87.3677 74.1999C50.3917 55.6599 48.8377 51.1549 66.9437 0.26889C67.0227 0.0468896 66.6297 -0.11311 66.5307 0.10089C43.9367 49.1599 39.6777 51.2969 0.268714 38.7319C0.0107143 38.6499 -0.111286 38.9479 0.130714 39.0699Z" fill="#8E57F5"/>
<path d="M0.130714 39.0699C37.1067 57.6099 38.6607 62.1149 20.5547 113.001C20.4757 113.223 20.8687 113.383 20.9677 113.169C43.5617 64.1099 47.8207 61.9729 87.2297 74.5379C87.4877 74.6199 87.6087 74.3219 87.3677 74.1999C50.3917 55.6599 48.8377 51.1549 66.9437 0.26889C67.0227 0.0468896 66.6297 -0.11311 66.5307 0.10089C43.9367 49.1599 39.6777 51.2969 0.268714 38.7319C0.0107143 38.6499 -0.111286 38.9479 0.130714 39.0699Z" fill="url(#paint0_linear_215_70)" fill-opacity="0.3"/>
<path d="M44.1109 95.979C53.1809 100.527 53.5619 101.632 49.1209 114.114C49.1019 114.168 49.1979 114.208 49.2219 114.155C54.7639 102.121 55.8089 101.597 65.4759 104.679C65.5389 104.699 65.5689 104.626 65.5099 104.596C56.4399 100.048 56.0589 98.943 60.4999 86.461C60.5189 86.407 60.4229 86.3669 60.3989 86.4199C54.8569 98.4539 53.8119 98.978 44.1449 95.896C44.0819 95.876 44.0519 95.949 44.1109 95.979Z" fill="#8E57F5"/>
<path d="M44.1109 95.979C53.1809 100.527 53.5619 101.632 49.1209 114.114C49.1019 114.168 49.1979 114.208 49.2219 114.155C54.7639 102.121 55.8089 101.597 65.4759 104.679C65.5389 104.699 65.5689 104.626 65.5099 104.596C56.4399 100.048 56.0589 98.943 60.4999 86.461C60.5189 86.407 60.4229 86.3669 60.3989 86.4199C54.8569 98.4539 53.8119 98.978 44.1449 95.896C44.0819 95.876 44.0519 95.949 44.1109 95.979Z" fill="url(#paint1_linear_215_70)" fill-opacity="0.3"/>
<path d="M74.4179 47.3639C82.2949 51.3139 82.6259 52.2729 78.7689 63.1139C78.7519 63.1609 78.8359 63.1949 78.8569 63.1499C83.6699 52.6989 84.5779 52.2439 92.9729 54.9199C93.0279 54.9369 93.0539 54.8739 93.0019 54.8479C85.1249 50.8979 84.7939 49.9389 88.6509 39.0979C88.6679 39.0509 88.5839 39.0169 88.5629 39.0619C83.7499 49.5129 82.8419 49.9679 74.4469 47.2919C74.3919 47.2749 74.3669 47.3379 74.4179 47.3639Z" fill="#8E57F5"/>
<path d="M74.4179 47.3639C82.2949 51.3139 82.6259 52.2729 78.7689 63.1139C78.7519 63.1609 78.8359 63.1949 78.8569 63.1499C83.6699 52.6989 84.5779 52.2439 92.9729 54.9199C93.0279 54.9369 93.0539 54.8739 93.0019 54.8479C85.1249 50.8979 84.7939 49.9389 88.6509 39.0979C88.6679 39.0509 88.5839 39.0169 88.5629 39.0619C83.7499 49.5129 82.8419 49.9679 74.4469 47.2919C74.3919 47.2749 74.3669 47.3379 74.4179 47.3639Z" fill="url(#paint2_linear_215_70)" fill-opacity="0.3"/>
<defs>
<linearGradient id="paint0_linear_215_70" x1="44.1909" y1="-2.1181e-08" x2="43.4504" y2="40.0394" gradientUnits="userSpaceOnUse">
<stop offset="0.713717" stop-color="#F2EEC6"/>
<stop offset="1" stop-color="#F858D9"/>
</linearGradient>
<linearGradient id="paint1_linear_215_70" x1="54.9188" y1="86.395" x2="54.7371" y2="96.2166" gradientUnits="userSpaceOnUse">
<stop offset="0.713717" stop-color="#F2EEC6"/>
<stop offset="1" stop-color="#F858D9"/>
</linearGradient>
<linearGradient id="paint2_linear_215_70" x1="83.8042" y1="39.0408" x2="83.6465" y2="47.5705" gradientUnits="userSpaceOnUse">
<stop offset="0.713717" stop-color="#F2EEC6"/>
<stop offset="1" stop-color="#F858D9"/>
</linearGradient>
</defs>
</svg>
