<svg width="88" height="115" viewBox="0 0 88 115" fill="none" xmlns="http://www.w3.org/2000/svg">
<path d="M87.3673 39.0699C50.3913 57.6099 48.8374 62.1149 66.9434 113.001C67.0224 113.223 66.6293 113.383 66.5303 113.169C43.9363 64.1099 39.6773 61.9729 0.268333 74.5379C0.0103334 74.6199 -0.110667 74.3219 0.130333 74.1999C37.1063 55.6599 38.6603 51.1549 20.5543 0.26889C20.4753 0.0468896 20.8683 -0.11311 20.9673 0.10089C43.5613 49.1599 47.8203 51.2969 87.2293 38.7319C87.4873 38.6499 87.6093 38.9479 87.3673 39.0699Z" fill="#F858D9"/>
<path d="M87.3673 39.0699C50.3913 57.6099 48.8374 62.1149 66.9434 113.001C67.0224 113.223 66.6293 113.383 66.5303 113.169C43.9363 64.1099 39.6773 61.9729 0.268333 74.5379C0.0103334 74.6199 -0.110667 74.3219 0.130333 74.1999C37.1063 55.6599 38.6603 51.1549 20.5543 0.26889C20.4753 0.0468896 20.8683 -0.11311 20.9673 0.10089C43.5613 49.1599 47.8203 51.2969 87.2293 38.7319C87.4873 38.6499 87.6093 38.9479 87.3673 39.0699Z" fill="url(#paint0_linear_170_116)" fill-opacity="0.3"/>
<path d="M43.3874 95.979C34.3174 100.527 33.9364 101.632 38.3774 114.114C38.3964 114.168 38.3004 114.208 38.2764 114.155C32.7344 102.121 31.6894 101.597 22.0224 104.679C21.9594 104.699 21.9294 104.626 21.9884 104.596C31.0584 100.048 31.4394 98.943 26.9984 86.461C26.9794 86.407 27.0754 86.3669 27.0994 86.4199C32.6414 98.4539 33.6864 98.978 43.3534 95.896C43.4164 95.876 43.4464 95.949 43.3874 95.979Z" fill="#8E57F5"/>
<path d="M43.3874 95.979C34.3174 100.527 33.9364 101.632 38.3774 114.114C38.3964 114.168 38.3004 114.208 38.2764 114.155C32.7344 102.121 31.6894 101.597 22.0224 104.679C21.9594 104.699 21.9294 104.626 21.9884 104.596C31.0584 100.048 31.4394 98.943 26.9984 86.461C26.9794 86.407 27.0754 86.3669 27.0994 86.4199C32.6414 98.4539 33.6864 98.978 43.3534 95.896C43.4164 95.876 43.4464 95.949 43.3874 95.979Z" fill="url(#paint1_linear_170_116)" fill-opacity="0.3"/>
<defs>
<linearGradient id="paint0_linear_170_116" x1="43.3071" y1="-2.1181e-08" x2="44.0476" y2="40.0394" gradientUnits="userSpaceOnUse">
<stop offset="0.713717" stop-color="#F858D9"/>
<stop offset="1" stop-color="#611DF7"/>
</linearGradient>
<linearGradient id="paint1_linear_170_116" x1="32.5795" y1="86.395" x2="32.7612" y2="96.2166" gradientUnits="userSpaceOnUse">
<stop offset="0.713717" stop-color="#F858D9"/>
<stop offset="1" stop-color="#611DF7"/>
</linearGradient>
</defs>
</svg>
