<svg width="107" height="137" viewBox="0 0 107 137" fill="none" xmlns="http://www.w3.org/2000/svg">
<path d="M84.9898 78.139C52.7528 81.213 50.2987 84.629 48.4047 136.045C48.3967 136.269 48.0647 136.269 48.0557 136.045C46.1617 84.63 43.7077 81.213 11.4708 78.139C11.2598 78.119 11.2598 77.812 11.4708 77.792C43.7077 74.718 46.1617 71.302 48.0557 19.886C48.0637 19.662 48.3957 19.662 48.4047 19.886C50.2987 71.301 52.7528 74.718 84.9898 77.792C85.2008 77.812 85.2008 78.119 84.9898 78.139Z" fill="#8E57F5"/>
<path d="M84.9898 78.139C52.7528 81.213 50.2987 84.629 48.4047 136.045C48.3967 136.269 48.0647 136.269 48.0557 136.045C46.1617 84.63 43.7077 81.213 11.4708 78.139C11.2598 78.119 11.2598 77.812 11.4708 77.792C43.7077 74.718 46.1617 71.302 48.0557 19.886C48.0637 19.662 48.3957 19.662 48.4047 19.886C50.2987 71.301 52.7528 74.718 84.9898 77.792C85.2008 77.812 85.2008 78.119 84.9898 78.139Z" fill="url(#paint0_linear_215_74)" fill-opacity="0.3"/>
<path d="M106.063 33.241C87.7206 34.99 86.3246 36.934 85.2466 66.188C85.2416 66.316 85.0526 66.316 85.0486 66.188C83.9706 36.934 82.5746 34.99 64.2326 33.241C64.1126 33.229 64.1126 33.055 64.2326 33.043C82.5746 31.294 83.9706 29.35 85.0486 0.096C85.0536 -0.032 85.2426 -0.032 85.2466 0.096C86.3246 29.35 87.7206 31.294 106.063 33.043C106.183 33.055 106.183 33.229 106.063 33.241Z" fill="#8E57F5"/>
<path d="M106.063 33.241C87.7206 34.99 86.3246 36.934 85.2466 66.188C85.2416 66.316 85.0526 66.316 85.0486 66.188C83.9706 36.934 82.5746 34.99 64.2326 33.241C64.1126 33.229 64.1126 33.055 64.2326 33.043C82.5746 31.294 83.9706 29.35 85.0486 0.096C85.0536 -0.032 85.2426 -0.032 85.2466 0.096C86.3246 29.35 87.7206 31.294 106.063 33.043C106.183 33.055 106.183 33.229 106.063 33.241Z" fill="url(#paint1_linear_215_74)" fill-opacity="0.3"/>
<path d="M25.5737 34.208C14.3837 35.275 13.5317 36.461 12.8747 54.308C12.8717 54.386 12.7568 54.386 12.7538 54.308C12.0968 36.461 11.2447 35.275 0.05475 34.208C-0.01825 34.201 -0.01825 34.094 0.05475 34.087C11.2447 33.02 12.0968 31.834 12.7538 13.987C12.7568 13.909 12.8717 13.909 12.8747 13.987C13.5327 31.834 14.3837 33.02 25.5737 34.087C25.6467 34.095 25.6467 34.201 25.5737 34.208Z" fill="#8E57F5"/>
<path d="M25.5737 34.208C14.3837 35.275 13.5317 36.461 12.8747 54.308C12.8717 54.386 12.7568 54.386 12.7538 54.308C12.0968 36.461 11.2447 35.275 0.05475 34.208C-0.01825 34.201 -0.01825 34.094 0.05475 34.087C11.2447 33.02 12.0968 31.834 12.7538 13.987C12.7568 13.909 12.8717 13.909 12.8747 13.987C13.5327 31.834 14.3837 33.02 25.5737 34.087C25.6467 34.095 25.6467 34.201 25.5737 34.208Z" fill="url(#paint2_linear_215_74)" fill-opacity="0.3"/>
<defs>
<linearGradient id="paint0_linear_215_74" x1="48.6032" y1="19.718" x2="47.6751" y2="60.8906" gradientUnits="userSpaceOnUse">
<stop offset="0.713717" stop-color="#F2EEC6"/>
<stop offset="1" stop-color="#8E57F5"/>
</linearGradient>
<linearGradient id="paint1_linear_215_74" x1="85.3598" y1="-1.23948e-08" x2="84.8317" y2="23.4266" gradientUnits="userSpaceOnUse">
<stop offset="0.713717" stop-color="#F2EEC6"/>
<stop offset="1" stop-color="#8E57F5"/>
</linearGradient>
<linearGradient id="paint2_linear_215_74" x1="12.9437" y1="13.9285" x2="12.6215" y2="28.2204" gradientUnits="userSpaceOnUse">
<stop offset="0.713717" stop-color="#F2EEC6"/>
<stop offset="1" stop-color="#8E57F5"/>
</linearGradient>
</defs>
</svg>
