<svg width="9" height="15" viewBox="0 0 9 15" fill="none" xmlns="http://www.w3.org/2000/svg">
<path d="M8.5731 6.71734L1.89791 0.232793C1.74352 0.0826917 1.53743 0 1.31767 0C1.09792 0 0.891822 0.0826917 0.737433 0.232793L0.245852 0.710225C-0.0740237 1.02133 -0.0740237 1.52695 0.245852 1.83758L5.85117 7.28291L0.239632 12.7343C0.0852432 12.8844 0 13.0845 0 13.2978C0 13.5114 0.0852432 13.7115 0.239632 13.8618L0.731214 14.3391C0.885725 14.4892 1.0917 14.5719 1.31145 14.5719C1.53121 14.5719 1.7373 14.4892 1.89169 14.3391L8.5731 7.84861C8.72786 7.69803 8.81286 7.49699 8.81237 7.28327C8.81286 7.06872 8.72786 6.8678 8.5731 6.71734Z" fill="white"/>
</svg>
