<svg width="25" height="24" viewBox="0 0 25 24" fill="none" xmlns="http://www.w3.org/2000/svg">
<g clip-path="url(#clip0_19_68)">
<path d="M24.3426 7.05607C24.2864 5.78082 24.0802 4.90418 23.7847 4.14447C23.4799 3.33811 23.0111 2.61618 22.3969 2.01602C21.7967 1.40652 21.07 0.932901 20.273 0.632936C19.509 0.337566 18.6368 0.131276 17.3616 0.0751084C16.0768 0.0140652 15.669 0 12.4105 0C9.1521 0 8.74425 0.0140652 7.46427 0.0703262C6.18907 0.126587 5.31238 0.332971 4.5529 0.628154C3.74631 0.932901 3.02439 1.40174 2.42422 2.01602C1.81473 2.61614 1.34134 3.34284 1.04114 4.13987C0.745769 4.90418 0.539526 5.77613 0.483312 7.05128C0.422315 8.33605 0.408203 8.7439 0.408203 12.0023C0.408203 15.2608 0.422315 15.6687 0.478529 16.9486C0.53479 18.2239 0.741174 19.1005 1.03659 19.8602C1.34134 20.6666 1.81473 21.3885 2.42422 21.9887C3.02439 22.5982 3.75109 23.0718 4.54812 23.3718C5.31233 23.6671 6.18428 23.8734 7.45972 23.9296C8.73947 23.986 9.14755 23.9999 12.406 23.9999C15.6644 23.9999 16.0723 23.986 17.3523 23.9296C18.6275 23.8734 19.5042 23.6672 20.2636 23.3718C21.0613 23.0633 21.7857 22.5917 22.3905 21.987C22.9952 21.3823 23.4669 20.6579 23.7754 19.8602C24.0706 19.096 24.277 18.2238 24.3332 16.9486C24.3895 15.6687 24.4036 15.2608 24.4036 12.0023C24.4036 8.7439 24.3988 8.336 24.3426 7.05607ZM22.1813 16.8549C22.1297 18.027 21.9328 18.6599 21.7687 19.0819C21.3654 20.1274 20.5356 20.9572 19.4901 21.3605C19.0681 21.5246 18.4306 21.7215 17.2631 21.7729C15.9972 21.8294 15.6176 21.8432 12.4153 21.8432C9.21309 21.8432 8.82869 21.8294 7.56737 21.7729C6.39526 21.7215 5.76233 21.5246 5.34037 21.3605C4.8201 21.1682 4.34652 20.8634 3.96207 20.4649C3.56355 20.0758 3.25881 19.607 3.06649 19.0866C2.90239 18.6647 2.70553 18.027 2.6541 16.8596C2.59765 15.5938 2.58377 15.2139 2.58377 12.0117C2.58377 8.80944 2.59765 8.42504 2.6541 7.16395C2.70553 5.99184 2.90239 5.35891 3.06649 4.93695C3.25881 4.41644 3.56355 3.94296 3.96685 3.55841C4.3558 3.1599 4.82464 2.85515 5.34515 2.66307C5.76711 2.49897 6.40483 2.30206 7.57215 2.25044C8.83802 2.19418 9.21788 2.18011 12.4199 2.18011C15.6269 2.18011 16.0065 2.19418 17.2678 2.25044C18.4399 2.30211 19.0729 2.49893 19.4948 2.66302C20.0151 2.85515 20.4887 3.1599 20.8731 3.55841C21.2717 3.9476 21.5764 4.41644 21.7687 4.93695C21.9328 5.35891 22.1297 5.99639 22.1813 7.16395C22.2376 8.42982 22.2516 8.80944 22.2516 12.0117C22.2516 15.2139 22.2376 15.589 22.1813 16.8549Z" fill="white"/>
<path d="M12.4104 5.8371C9.00669 5.8371 6.24512 8.59848 6.24512 12.0024C6.24512 15.4063 9.00669 18.1676 12.4104 18.1676C15.8142 18.1676 18.5757 15.4063 18.5757 12.0024C18.5757 8.59848 15.8142 5.8371 12.4104 5.8371ZM12.4104 16.0016C10.2022 16.0016 8.41107 14.2107 8.41107 12.0024C8.41107 9.79403 10.2022 8.00315 12.4103 8.00315C14.6187 8.00315 16.4096 9.79403 16.4096 12.0024C16.4096 14.2107 14.6186 16.0016 12.4104 16.0016ZM20.2589 5.5933C20.2589 6.38818 19.6144 7.03265 18.8194 7.03265C18.0245 7.03265 17.3801 6.38818 17.3801 5.5933C17.3801 4.79834 18.0245 4.15405 18.8194 4.15405C19.6144 4.15405 20.2589 4.79829 20.2589 5.5933Z" fill="white"/>
</g>
<defs>
<clipPath id="clip0_19_68">
<rect width="24" height="24" fill="white" transform="translate(0.366211)"/>
</clipPath>
</defs>
</svg>
