<svg width="30" height="37" viewBox="0 0 30 37" fill="none" xmlns="http://www.w3.org/2000/svg">
<path d="M22.0811 0.101074C22.1667 0.101074 22.2523 0.101074 22.3428 0.101074C22.5529 2.69614 21.5624 4.63517 20.3586 6.03935C19.1774 7.43383 17.5599 8.78631 14.9438 8.58109C14.7693 6.02319 15.7614 4.22797 16.9636 2.82702C18.0786 1.52141 20.1226 0.359611 22.0811 0.101074Z" fill="white"/>
<path d="M30 27.1118C30 27.1377 30 27.1603 30 27.1845C29.2648 29.4112 28.2161 31.3195 26.9363 33.0905C25.7681 34.6982 24.3364 36.8619 21.7801 36.8619C19.5713 36.8619 18.1041 35.4415 15.8402 35.4028C13.4455 35.364 12.1286 36.5904 9.93914 36.899C9.68868 36.899 9.43822 36.899 9.19261 36.899C7.58483 36.6664 6.2873 35.3931 5.34202 34.2458C2.55467 30.8557 0.400732 26.4768 0 20.873C0 20.3236 0 19.7758 0 19.2264C0.169665 15.2159 2.11839 11.9551 4.70861 10.3748C6.07562 9.53451 7.95486 8.81868 10.0474 9.13862C10.9442 9.27759 11.8604 9.5846 12.6635 9.88838C13.4245 10.1809 14.3763 10.6995 15.2779 10.6721C15.8887 10.6543 16.4963 10.336 17.1119 10.1114C18.9152 9.46018 20.683 8.71365 23.013 9.06429C25.8133 9.48765 27.8008 10.7319 29.0289 12.6515C26.66 14.1591 24.7872 16.431 25.1072 20.3107C25.3916 23.8348 27.4405 25.8967 30 27.1118Z" fill="white"/>
</svg>
