<svg width="79" height="47" viewBox="0 0 79 47" fill="none" xmlns="http://www.w3.org/2000/svg">
<path fill-rule="evenodd" clip-rule="evenodd" d="M17.7996 0C27.6309 0 35.6012 7.96828 35.6012 17.7996C35.6012 31.7524 26.0156 39.7123 15.5744 46.7585C14.3879 47.5578 12.9141 46.2214 13.5969 44.9621C15.2351 41.9334 16.3612 38.8173 16.6381 35.5617C7.34797 34.9622 0 27.2395 0 17.7996C0 7.96828 7.97036 0 17.7996 0Z" fill="#F858D9"/>
<path fill-rule="evenodd" clip-rule="evenodd" d="M60.4511 0C70.2803 0 78.2506 7.96828 78.2506 17.7996C78.2506 31.7524 68.6671 39.7123 58.2259 46.7585C57.0394 47.5578 55.5656 46.2214 56.2463 44.9621C57.8845 41.9334 59.0127 38.8173 59.2875 35.5617C49.9995 34.9622 42.6494 27.2395 42.6494 17.7996C42.6494 7.96828 50.6198 0 60.4511 0Z" fill="#F858D9"/>
</svg>
