<svg width="20" height="19" viewBox="0 0 20 19" fill="none" xmlns="http://www.w3.org/2000/svg">
<path d="M11.3135 0.817033L13.2636 4.68173C13.4745 5.12267 13.8961 5.43392 14.3968 5.48579L18.7188 6.13423C19.9311 6.31579 20.4318 7.7683 19.5622 8.62424L16.4261 11.633C16.0835 11.9702 15.899 12.463 16.0044 12.9299L16.7423 17.1836C16.9532 18.3768 15.6618 19.2846 14.5813 18.7139L10.7073 16.7167C10.2593 16.4833 9.73225 16.4833 9.33695 16.7167L5.46296 18.7139C4.35611 19.2846 3.09114 18.3508 3.30196 17.1836L4.03987 12.9039C4.11893 12.4111 3.96081 11.9442 3.61821 11.6071L0.455771 8.5983C-0.440254 7.74236 0.0604657 6.26392 1.29909 6.10829L5.64744 5.48579C6.14816 5.40798 6.56982 5.12267 6.78065 4.68173L8.73082 0.817033C9.20518 -0.272344 10.7864 -0.272344 11.3135 0.817033Z" fill="#EFB845"/>
</svg>
