<svg width="63" height="52" viewBox="0 0 63 52" fill="none" xmlns="http://www.w3.org/2000/svg">
<path d="M29.2504 33.2406C29.9086 33.2406 30.5669 32.9773 31.0276 32.4507L39.9137 22.8406C40.8352 21.8532 40.7694 20.3393 39.782 19.4178C38.7947 18.4963 37.2808 18.5621 36.3593 19.5494L29.2504 27.1849L26.2884 23.9596C25.3669 22.9722 23.8529 22.9064 22.8656 23.8279C21.8782 24.7494 21.8124 26.2634 22.7339 27.2507L27.539 32.3849C27.9339 32.9773 28.5922 33.2406 29.2504 33.2406Z" fill="white"/>
<path d="M44.9163 42.1265C41.0986 45.3518 36.2935 47.129 31.291 47.129C19.6403 47.129 10.1619 37.6505 10.1619 25.9999V24.6834H13.1897C13.9796 24.6834 14.7036 24.2227 15.0986 23.5645C15.4935 22.8404 15.4277 21.9847 15.0328 21.3265L9.56946 12.7695C8.77959 11.5189 6.67326 11.5189 5.88339 12.7695L0.354273 21.3265C-0.106487 21.9847 -0.106487 22.8404 0.28845 23.5645C0.683387 24.2227 1.40744 24.6834 2.19731 24.6834H5.22516V25.9999C5.22516 40.3493 16.8758 51.9999 31.2252 51.9999C37.3467 51.9999 43.3366 49.8277 48.01 45.8784C49.0631 45.0227 49.1948 43.4429 48.2733 42.4556C47.4834 41.4024 45.9695 41.2708 44.9163 42.1265Z" fill="white"/>
<path d="M62.2934 28.4354C61.8985 27.7114 61.1744 27.3165 60.3846 27.3165H57.3567V26C57.3567 11.6506 45.7061 0 31.3567 0C25.2352 0 19.2453 2.17215 14.5719 6.12152C13.5188 6.97721 13.3871 8.55696 14.3086 9.5443C15.1643 10.5975 16.7441 10.7291 17.7314 9.80759C21.5491 6.58228 26.3542 4.80506 31.3567 4.80506C43.0074 4.80506 52.4858 14.2835 52.4858 25.9342V27.2506H49.458C48.6681 27.2506 47.9441 27.7114 47.5491 28.3696C47.1542 29.0937 47.22 29.9494 47.615 30.6076L53.0783 39.1646C53.4732 39.8228 54.1972 40.1519 54.9213 40.1519C55.6453 40.1519 56.3694 39.757 56.7643 39.1646L62.2276 30.6076C62.6226 30.0152 62.6884 29.1595 62.2934 28.4354Z" fill="white"/>
</svg>
