<svg width="52" height="52" viewBox="0 0 52 52" fill="none" xmlns="http://www.w3.org/2000/svg">
<path d="M39.4875 25.9425C39.4875 18.4811 33.4036 12.3398 25.8849 12.3398C18.3661 12.3398 12.2822 18.4237 12.2822 25.9425C12.2822 26.9756 12.397 28.0661 12.684 29.1566C13.1432 31.2228 14.0041 32.9447 15.2094 35.1257C15.8407 36.2736 16.4721 36.9623 16.9313 37.4789C17.62 38.225 17.7348 38.3972 17.7348 39.7173V42.8167C17.7348 44.1368 18.4809 45.2272 19.5714 45.8012C20.1454 49.5893 21.9246 51.9999 25.8849 51.9999C29.8451 51.9999 31.6244 49.5893 32.1983 45.8012C33.2888 45.2272 34.035 44.1368 34.035 42.8167V39.7173C34.035 38.3972 34.2072 38.225 34.8385 37.4789C35.2977 36.9623 35.929 36.2736 36.5604 35.1257C37.823 32.9447 38.684 31.2228 39.0858 29.1566C39.3727 28.0661 39.4875 26.9756 39.4875 25.9425ZM30.5339 39.9469V42.7018H21.2359V39.9469H30.5339ZM25.8849 48.4988C24.9092 48.4988 23.7039 48.4987 23.1299 46.1455H28.5825C28.0659 48.4987 26.8606 48.4988 25.8849 48.4988ZM35.7568 28.3531C35.4125 30.0176 34.6663 31.4524 33.5758 33.4039C33.1167 34.2074 32.6575 34.7239 32.2557 35.1831C31.854 35.6423 31.5096 36.044 31.2226 36.5032H20.5471C20.2602 36.044 19.9158 35.5849 19.514 35.1831C19.1123 34.7239 18.7105 34.2648 18.1939 33.4039C17.1034 31.5098 16.3573 30.0749 16.0129 28.4105V28.3531C15.7833 27.5496 15.7259 26.6886 15.7259 25.9425C15.7259 20.3752 20.2602 15.7836 25.8849 15.7836C31.5096 15.7836 36.0438 20.3178 36.0438 25.9425C36.0438 26.6886 35.929 27.4922 35.7568 28.3531Z" fill="white"/>
<path d="M50.106 24.1633H45.9162C44.9405 24.1633 44.1943 24.9095 44.1943 25.8852C44.1943 26.8609 44.9405 27.607 45.9162 27.607H50.106C51.0817 27.607 51.8279 26.8609 51.8279 25.8852C51.8279 24.9095 51.0243 24.1633 50.106 24.1633Z" fill="white"/>
<path d="M40.0041 13.4878C40.4632 13.4878 40.865 13.3157 41.2094 12.9713L44.1939 9.98673C44.8827 9.29799 44.8827 8.20747 44.1939 7.57613C43.5052 6.88738 42.4147 6.88738 41.7833 7.57613L38.7988 10.5607C38.11 11.2494 38.11 12.3399 38.7988 12.9713C39.1432 13.3157 39.6023 13.4878 40.0041 13.4878Z" fill="white"/>
<path d="M25.8849 7.63354C26.8607 7.63354 27.6068 6.88741 27.6068 5.91169V1.72185C27.6068 0.746136 26.8607 0 25.8849 0C24.9092 0 24.1631 0.746136 24.1631 1.72185V5.91169C24.1631 6.83001 24.9092 7.63354 25.8849 7.63354Z" fill="white"/>
<path d="M10.5607 12.9713C10.9051 13.3157 11.3642 13.4878 11.766 13.4878C12.1678 13.4878 12.6269 13.3157 12.9713 12.9713C13.66 12.2825 13.66 11.192 12.9713 10.5607L9.98673 7.57613C9.29799 6.88738 8.20747 6.88738 7.57613 7.57613C6.88738 8.26487 6.88738 9.35538 7.57613 9.98673L10.5607 12.9713Z" fill="white"/>
<path d="M7.63354 25.8852C7.63354 24.9095 6.88741 24.1633 5.91169 24.1633H1.72185C0.746136 24.1633 0 24.9095 0 25.8852C0 26.8609 0.746136 27.607 1.72185 27.607H5.91169C6.83001 27.607 7.63354 26.8609 7.63354 25.8852Z" fill="white"/>
<path d="M10.5607 38.799L7.57613 41.7835C6.88738 42.4723 6.88738 43.5628 7.57613 44.1942C7.9205 44.5386 8.37968 44.7107 8.78144 44.7107C9.18321 44.7107 9.64236 44.5386 9.98673 44.1942L12.9713 41.2096C13.66 40.5209 13.66 39.4304 12.9713 38.799C12.2825 38.1103 11.192 38.1103 10.5607 38.799Z" fill="white"/>
<path d="M41.2094 38.799C40.5206 38.1103 39.4301 38.1103 38.7988 38.799C38.11 39.4878 38.11 40.5782 38.7988 41.2096L41.7833 44.1942C42.1277 44.5386 42.5869 44.7107 42.9886 44.7107C43.3904 44.7107 43.8496 44.5386 44.1939 44.1942C44.8827 43.5054 44.8827 42.4149 44.1939 41.7835L41.2094 38.799Z" fill="white"/>
</svg>
