<svg width="43" height="53" viewBox="0 0 43 53" fill="none" xmlns="http://www.w3.org/2000/svg">
<path d="M36.5675 7.42554V12.8078L28.5345 22.7742C28.1797 23.2143 27.6522 23.4677 27.0874 23.4677C26.5227 23.4677 25.9952 23.215 25.6397 22.7742L17.6074 12.8078V7.42554H36.5675Z" fill="white"/>
<path d="M43 14.4801V2.33137C43 1.58081 42.394 0.9729 41.6457 0.9729H12.5285C11.7803 0.9729 11.1742 1.58081 11.1742 2.33137V14.4801C11.1742 14.7926 11.2812 15.0955 11.4783 15.3373L19.7625 25.5517L17.341 28.5029C15.8723 27.8984 14.2674 27.5595 12.584 27.5595C5.64467 27.5595 0 33.2222 0 40.1824C0 47.1425 5.64467 52.8052 12.5834 52.8052C15.6407 52.8052 18.4454 51.7035 20.6285 49.8777H41.6457C42.394 49.8777 43 49.2698 43 48.5193V36.505C43 36.1898 42.891 35.8848 42.6912 35.6417L34.4125 25.5517L42.6966 15.3373C42.8923 15.0955 43 14.7926 43 14.4801ZM3.38572 40.1824C3.38572 35.0949 7.51224 30.9556 12.5834 30.9556C17.6545 30.9556 21.781 35.0949 21.781 40.1824C21.781 45.2698 17.6545 49.4091 12.5834 49.4091C7.51224 49.4091 3.38572 45.2698 3.38572 40.1824ZM39.6143 13.7561L30.3868 25.1326C30.1837 25.3832 30.1844 25.7432 30.3895 25.9932L39.6143 37.2365V46.4823H23.4718C24.5438 44.6259 25.1674 42.4782 25.1674 40.183C25.1674 36.1423 23.2572 32.5485 20.3035 30.2363L23.7847 25.9938C23.9892 25.7446 23.9905 25.3846 23.7874 25.1333L14.56 13.7561V4.36907H39.6143V13.7561Z" fill="white"/>
<path d="M16.1384 43.4418H11.1743C10.2392 43.4418 9.48145 42.6817 9.48145 41.7437V36.0843C9.48145 35.1463 10.2392 34.3862 11.1743 34.3862C12.1094 34.3862 12.8672 35.1463 12.8672 36.0843V40.0456H16.1384C17.0736 40.0456 17.8313 40.8057 17.8313 41.7437C17.8313 42.6817 17.0736 43.4418 16.1384 43.4418Z" fill="white"/>
</svg>
