<svg width="53" height="52" viewBox="0 0 53 52" fill="none" xmlns="http://www.w3.org/2000/svg">
<path d="M43.4438 31.1956C42.749 30.5009 41.626 30.5009 40.9312 31.1956C40.2365 31.8904 40.2365 33.0134 40.9312 33.7082L43.9289 36.7059C44.2754 37.0524 44.7303 37.2265 45.1852 37.2265C45.6401 37.2265 46.095 37.0524 46.4415 36.7059C47.1363 36.0111 47.1363 34.8881 46.4415 34.1933L43.4438 31.1956Z" fill="white"/>
<path d="M19.0285 11.8076C19.375 12.1541 19.8299 12.3283 20.2848 12.3283C20.7397 12.3283 21.1946 12.1541 21.5411 11.8076C22.2359 11.1129 22.2359 9.98806 21.5411 9.29506L18.5434 6.29916C17.8486 5.60438 16.7256 5.60438 16.0308 6.29916C15.3361 6.99394 15.3361 8.11873 16.0308 8.81174L19.0285 11.8076Z" fill="white"/>
<path d="M50.9602 19.7256H46.7222C45.7396 19.7256 44.9453 20.5216 44.9453 21.5025C44.9453 22.4834 45.7396 23.2794 46.7222 23.2794H50.9602C51.9429 23.2794 52.7371 22.4834 52.7371 21.5025C52.7371 20.5216 51.9429 19.7256 50.9602 19.7256Z" fill="white"/>
<path d="M39.3267 16.3921L36.3396 13.4051C34.4223 11.4878 31.3003 11.4843 29.3794 13.4051L23.7519 19.0327C23.7412 19.0433 23.727 19.0469 23.7164 19.0575C23.7057 19.0682 23.7021 19.0824 23.6915 19.0931L2.17466 40.6117C0.255581 42.5307 0.255581 45.6528 2.17466 47.5719L5.16168 50.5589C6.08923 51.4882 7.32597 52 8.6409 52C9.95583 52 11.1926 51.4882 12.1219 50.5589L39.3284 23.3524C40.2578 22.423 40.7713 21.1863 40.7713 19.8714C40.7713 18.5564 40.2578 17.3215 39.3267 16.3921ZM9.60933 48.0463C9.09402 48.5634 8.19312 48.5652 7.67425 48.0463L4.68724 45.0593C4.15416 44.5262 4.15416 43.6573 4.68724 43.1242L24.978 22.8335L29.9001 27.7538L9.60933 48.0463ZM36.8141 20.8398L32.4126 25.2412L27.4905 20.3209L31.892 15.9195C32.1585 15.6529 32.5104 15.5197 32.8586 15.5197C33.2087 15.5197 33.5605 15.6529 33.8271 15.9195L36.8141 18.9065C37.0735 19.1642 37.2157 19.5071 37.2157 19.8731C37.2157 20.2392 37.0735 20.5804 36.8141 20.8398Z" fill="white"/>
<path d="M31.2359 7.79183C32.2186 7.79183 33.0128 6.99576 33.0128 6.0149V1.77693C33.0128 0.796063 32.2186 0 31.2359 0C30.2533 0 29.459 0.796063 29.459 1.77693V6.0149C29.459 6.99576 30.255 7.79183 31.2359 7.79183Z" fill="white"/>
<path d="M42.1856 12.3283C42.6405 12.3283 43.0954 12.1541 43.4419 11.8076L46.4395 8.81174C47.1343 8.11873 47.1343 6.99394 46.4395 6.29916C45.7448 5.60438 44.6217 5.60438 43.927 6.29916L40.9293 9.29506C40.2345 9.98806 40.2345 11.1129 40.9293 11.8076C41.2776 12.1541 41.7325 12.3283 42.1856 12.3283Z" fill="white"/>
</svg>
